<svg xmlns="http://www.w3.org/2000/svg" xmlns:xlink="http://www.w3.org/1999/xlink" version="1.1" class="marks" width="1442" height="413" viewBox="0 0 1442 413"><rect width="1442" height="413" fill="white"/><g fill="none" stroke-miterlimit="10" transform="translate(42,59)"><g class="mark-group role-frame root" role="graphics-object" aria-roledescription="group mark container"><g transform="translate(0,0)"><path class="background" aria-hidden="true" d="M0,0h0v0h0Z"/><g><g class="mark-group role-column-title column-title" role="graphics-object" aria-roledescription="group mark container"><g transform="translate(651,-33)"><path class="background" aria-hidden="true" d="M0,0h0v0h0Z"/><g><g class="mark-group role-title"><g transform="translate(0,-21)"><path class="background" aria-hidden="true" d="M0,0h0v0h0Z" pointer-events="none"/><g><g class="mark-text role-title-text" role="graphics-symbol" aria-roledescription="title" aria-label="Title text 'date'" pointer-events="none"><text text-anchor="middle" transform="translate(0,9)" font-family="sans-serif" font-size="11px" font-weight="bold" fill="#000" opacity="1">date</text></g></g><path class="foreground" aria-hidden="true" d="" pointer-events="none" display="none"/></g></g></g><path class="foreground" aria-hidden="true" d="" display="none"/></g></g><g class="mark-group role-row-header row_header" role="graphics-object" aria-roledescription="group mark container"><g transform="translate(-1,0)"><path class="background" aria-hidden="true" d="M0,0h0v300h0Z"/><g><g class="mark-group role-axis" role="graphics-symbol" aria-roledescription="axis" aria-label="Y-axis titled 'avg_rating' for a linear scale with values from 0 to 5"><g transform="translate(0.5,0.5)"><path class="background" aria-hidden="true" d="M0,0h0v0h0Z" pointer-events="none"/><g><g class="mark-rule role-axis-tick" pointer-events="none"><line transform="translate(0,300)" x2="-5" y2="0" stroke="#888" stroke-width="1" opacity="1"/><line transform="translate(0,270)" x2="-5" y2="0" stroke="#888" stroke-width="1" opacity="1"/><line transform="translate(0,240)" x2="-5" y2="0" stroke="#888" stroke-width="1" opacity="1"/><line transform="translate(0,210)" x2="-5" y2="0" stroke="#888" stroke-width="1" opacity="1"/><line transform="translate(0,180)" x2="-5" y2="0" stroke="#888" stroke-width="1" opacity="1"/><line transform="translate(0,150)" x2="-5" y2="0" stroke="#888" stroke-width="1" opacity="1"/><line transform="translate(0,120)" x2="-5" y2="0" stroke="#888" stroke-width="1" opacity="1"/><line transform="translate(0,90)" x2="-5" y2="0" stroke="#888" stroke-width="1" opacity="1"/><line transform="translate(0,60)" x2="-5" y2="0" stroke="#888" stroke-width="1" opacity="1"/><line transform="translate(0,30)" x2="-5" y2="0" stroke="#888" stroke-width="1" opacity="1"/><line transform="translate(0,0)" x2="-5" y2="0" stroke="#888" stroke-width="1" opacity="1"/></g><g class="mark-text role-axis-label" pointer-events="none"><text text-anchor="end" transform="translate(-7,303)" font-family="sans-serif" font-size="10px" fill="#000" opacity="1">0.0</text><text text-anchor="end" transform="translate(-7,273)" font-family="sans-serif" font-size="10px" fill="#000" opacity="1">0.5</text><text text-anchor="end" transform="translate(-7,243)" font-family="sans-serif" font-size="10px" fill="#000" opacity="1">1.0</text><text text-anchor="end" transform="translate(-7,213)" font-family="sans-serif" font-size="10px" fill="#000" opacity="1">1.5</text><text text-anchor="end" transform="translate(-7,183)" font-family="sans-serif" font-size="10px" fill="#000" opacity="1">2.0</text><text text-anchor="end" transform="translate(-7,153)" font-family="sans-serif" font-size="10px" fill="#000" opacity="1">2.5</text><text text-anchor="end" transform="translate(-7,123)" font-family="sans-serif" font-size="10px" fill="#000" opacity="1">3.0</text><text text-anchor="end" transform="translate(-7,93.00000000000001)" font-family="sans-serif" font-size="10px" fill="#000" opacity="1">3.5</text><text text-anchor="end" transform="translate(-7,62.999999999999986)" font-family="sans-serif" font-size="10px" fill="#000" opacity="1">4.0</text><text text-anchor="end" transform="translate(-7,32.99999999999999)" font-family="sans-serif" font-size="10px" fill="#000" opacity="1">4.5</text><text text-anchor="end" transform="translate(-7,3)" font-family="sans-serif" font-size="10px" fill="#000" opacity="1">5.0</text></g><g class="mark-rule role-axis-domain" pointer-events="none"><line transform="translate(0,300)" x2="0" y2="-300" stroke="#888" stroke-width="1" opacity="1"/></g><g class="mark-text role-axis-title" pointer-events="none"><text text-anchor="middle" transform="translate(-24.9013671875,150) rotate(-90) translate(0,-2)" font-family="sans-serif" font-size="11px" font-weight="bold" fill="#000" opacity="1">avg_rating</text></g></g><path class="foreground" aria-hidden="true" d="" pointer-events="none" display="none"/></g></g></g><path class="foreground" aria-hidden="true" d="" display="none"/></g></g><g class="mark-group role-column-header column_header" role="graphics-object" aria-roledescription="group mark container"><g transform="translate(0,-3)"><path class="background" aria-hidden="true" d="M0,0h640v0h-640Z"/><g><g class="mark-group role-title"><g transform="translate(320,-20)"><path class="background" aria-hidden="true" d="M0,0h0v0h0Z" pointer-events="none"/><g><g class="mark-text role-title-text" role="graphics-symbol" aria-roledescription="title" aria-label="Title text '04 Oct 22'" pointer-events="none"><text text-anchor="middle" transform="translate(0,8)" font-family="sans-serif" font-size="10px" fill="#000" opacity="1">04 Oct 22</text></g></g><path class="foreground" aria-hidden="true" d="" pointer-events="none" display="none"/></g></g></g><path class="foreground" aria-hidden="true" d="" display="none"/></g><g transform="translate(662,-3)"><path class="background" aria-hidden="true" d="M0,0h640v0h-640Z"/><g><g class="mark-group role-title"><g transform="translate(320,-20)"><path class="background" aria-hidden="true" d="M0,0h0v0h0Z" pointer-events="none"/><g><g class="mark-text role-title-text" role="graphics-symbol" aria-roledescription="title" aria-label="Title text '05 Oct 22'" pointer-events="none"><text text-anchor="middle" transform="translate(0,8)" font-family="sans-serif" font-size="10px" fill="#000" opacity="1">05 Oct 22</text></g></g><path class="foreground" aria-hidden="true" d="" pointer-events="none" display="none"/></g></g></g><path class="foreground" aria-hidden="true" d="" display="none"/></g></g><g class="mark-group role-column-footer column_footer" role="graphics-object" aria-roledescription="group mark container"><g transform="translate(0,301)"><path class="background" aria-hidden="true" d="M0,0h640v0h-640Z"/><g><g class="mark-group role-axis" role="graphics-symbol" aria-roledescription="axis" aria-label="X-axis titled 'start_time' for a discrete scale with 32 values: 06:30, 07:00, 08:00, 08:15, 08:30, ending with 17:45"><g transform="translate(0.5,0.5)"><path class="background" aria-hidden="true" d="M0,0h0v0h0Z" pointer-events="none"/><g><g class="mark-rule role-axis-tick" pointer-events="none"><line transform="translate(10,0)" x2="0" y2="5" stroke="#888" stroke-width="1" opacity="1"/><line transform="translate(30,0)" x2="0" y2="5" stroke="#888" stroke-width="1" opacity="1"/><line transform="translate(50,0)" x2="0" y2="5" stroke="#888" stroke-width="1" opacity="1"/><line transform="translate(70,0)" x2="0" y2="5" stroke="#888" stroke-width="1" opacity="1"/><line transform="translate(90,0)" x2="0" y2="5" stroke="#888" stroke-width="1" opacity="1"/><line transform="translate(110,0)" x2="0" y2="5" stroke="#888" stroke-width="1" opacity="1"/><line transform="translate(130,0)" x2="0" y2="5" stroke="#888" stroke-width="1" opacity="1"/><line transform="translate(150,0)" x2="0" y2="5" stroke="#888" stroke-width="1" opacity="1"/><line transform="translate(170,0)" x2="0" y2="5" stroke="#888" stroke-width="1" opacity="1"/><line transform="translate(190,0)" x2="0" y2="5" stroke="#888" stroke-width="1" opacity="1"/><line transform="translate(210,0)" x2="0" y2="5" stroke="#888" stroke-width="1" opacity="1"/><line transform="translate(230,0)" x2="0" y2="5" stroke="#888" stroke-width="1" opacity="1"/><line transform="translate(250,0)" x2="0" y2="5" stroke="#888" stroke-width="1" opacity="1"/><line transform="translate(270,0)" x2="0" y2="5" stroke="#888" stroke-width="1" opacity="1"/><line transform="translate(290,0)" x2="0" y2="5" stroke="#888" stroke-width="1" opacity="1"/><line transform="translate(310,0)" x2="0" y2="5" stroke="#888" stroke-width="1" opacity="1"/><line transform="translate(330,0)" x2="0" y2="5" stroke="#888" stroke-width="1" opacity="1"/><line transform="translate(350,0)" x2="0" y2="5" stroke="#888" stroke-width="1" opacity="1"/><line transform="translate(370,0)" x2="0" y2="5" stroke="#888" stroke-width="1" opacity="1"/><line transform="translate(390,0)" x2="0" y2="5" stroke="#888" stroke-width="1" opacity="1"/><line transform="translate(410,0)" x2="0" y2="5" stroke="#888" stroke-width="1" opacity="1"/><line transform="translate(430,0)" x2="0" y2="5" stroke="#888" stroke-width="1" opacity="1"/><line transform="translate(450,0)" x2="0" y2="5" stroke="#888" stroke-width="1" opacity="1"/><line transform="translate(470,0)" x2="0" y2="5" stroke="#888" stroke-width="1" opacity="1"/><line transform="translate(490,0)" x2="0" y2="5" stroke="#888" stroke-width="1" opacity="1"/><line transform="translate(510,0)" x2="0" y2="5" stroke="#888" stroke-width="1" opacity="1"/><line transform="translate(530,0)" x2="0" y2="5" stroke="#888" stroke-width="1" opacity="1"/><line transform="translate(550,0)" x2="0" y2="5" stroke="#888" stroke-width="1" opacity="1"/><line transform="translate(570,0)" x2="0" y2="5" stroke="#888" stroke-width="1" opacity="1"/><line transform="translate(590,0)" x2="0" y2="5" stroke="#888" stroke-width="1" opacity="1"/><line transform="translate(610,0)" x2="0" y2="5" stroke="#888" stroke-width="1" opacity="1"/><line transform="translate(630,0)" x2="0" y2="5" stroke="#888" stroke-width="1" opacity="1"/></g><g class="mark-text role-axis-label" pointer-events="none"><text text-anchor="end" transform="translate(10,7) rotate(270) translate(0,3)" font-family="sans-serif" font-size="10px" fill="#000" opacity="1">06:30</text><text text-anchor="end" transform="translate(30,7) rotate(270) translate(0,3)" font-family="sans-serif" font-size="10px" fill="#000" opacity="1">07:00</text><text text-anchor="end" transform="translate(50,7) rotate(270) translate(0,3)" font-family="sans-serif" font-size="10px" fill="#000" opacity="1">08:00</text><text text-anchor="end" transform="translate(70,7) rotate(270) translate(0,3)" font-family="sans-serif" font-size="10px" fill="#000" opacity="1">08:15</text><text text-anchor="end" transform="translate(90,7) rotate(270) translate(0,3)" font-family="sans-serif" font-size="10px" fill="#000" opacity="1">08:30</text><text text-anchor="end" transform="translate(110,7) rotate(270) translate(0,3)" font-family="sans-serif" font-size="10px" fill="#000" opacity="1">09:00</text><text text-anchor="end" transform="translate(130,7) rotate(270) translate(0,3)" font-family="sans-serif" font-size="10px" fill="#000" opacity="1">09:15</text><text text-anchor="end" transform="translate(150,7) rotate(270) translate(0,3)" font-family="sans-serif" font-size="10px" fill="#000" opacity="1">09:30</text><text text-anchor="end" transform="translate(170,7) rotate(270) translate(0,3)" font-family="sans-serif" font-size="10px" fill="#000" opacity="1">10:00</text><text text-anchor="end" transform="translate(190,7) rotate(270) translate(0,3)" font-family="sans-serif" font-size="10px" fill="#000" opacity="1">11:00</text><text text-anchor="end" transform="translate(210,7) rotate(270) translate(0,3)" font-family="sans-serif" font-size="10px" fill="#000" opacity="1">11:15</text><text text-anchor="end" transform="translate(230,7) rotate(270) translate(0,3)" font-family="sans-serif" font-size="10px" fill="#000" opacity="1">11:30</text><text text-anchor="end" transform="translate(250,7) rotate(270) translate(0,3)" font-family="sans-serif" font-size="10px" fill="#000" opacity="1">11:45</text><text text-anchor="end" transform="translate(270,7) rotate(270) translate(0,3)" font-family="sans-serif" font-size="10px" fill="#000" opacity="1">12:00</text><text text-anchor="end" transform="translate(290,7) rotate(270) translate(0,3)" font-family="sans-serif" font-size="10px" fill="#000" opacity="1">12:15</text><text text-anchor="end" transform="translate(310,7) rotate(270) translate(0,3)" font-family="sans-serif" font-size="10px" fill="#000" opacity="1">13:00</text><text text-anchor="end" transform="translate(330,7) rotate(270) translate(0,3)" font-family="sans-serif" font-size="10px" fill="#000" opacity="1">14:00</text><text text-anchor="end" transform="translate(350,7) rotate(270) translate(0,3)" font-family="sans-serif" font-size="10px" fill="#000" opacity="1">14:15</text><text text-anchor="end" transform="translate(370,7) rotate(270) translate(0,3)" font-family="sans-serif" font-size="10px" fill="#000" opacity="1">14:30</text><text text-anchor="end" transform="translate(390,7) rotate(270) translate(0,3)" font-family="sans-serif" font-size="10px" fill="#000" opacity="1">14:45</text><text text-anchor="end" transform="translate(410,7) rotate(270) translate(0,3)" font-family="sans-serif" font-size="10px" fill="#000" opacity="1">15:00</text><text text-anchor="end" transform="translate(430,7) rotate(270) translate(0,3)" font-family="sans-serif" font-size="10px" fill="#000" opacity="1">15:15</text><text text-anchor="end" transform="translate(450,7) rotate(270) translate(0,3)" font-family="sans-serif" font-size="10px" fill="#000" opacity="1">15:30</text><text text-anchor="end" transform="translate(470,7) rotate(270) translate(0,3)" font-family="sans-serif" font-size="10px" fill="#000" opacity="1">15:45</text><text text-anchor="end" transform="translate(490,7) rotate(270) translate(0,3)" font-family="sans-serif" font-size="10px" fill="#000" opacity="1">16:00</text><text text-anchor="end" transform="translate(510,7) rotate(270) translate(0,3)" font-family="sans-serif" font-size="10px" fill="#000" opacity="1">16:15</text><text text-anchor="end" transform="translate(530,7) rotate(270) translate(0,3)" font-family="sans-serif" font-size="10px" fill="#000" opacity="1">16:30</text><text text-anchor="end" transform="translate(550,7) rotate(270) translate(0,3)" font-family="sans-serif" font-size="10px" fill="#000" opacity="1">16:45</text><text text-anchor="end" transform="translate(570,7) rotate(270) translate(0,3)" font-family="sans-serif" font-size="10px" fill="#000" opacity="1">17:00</text><text text-anchor="end" transform="translate(590,7) rotate(270) translate(0,3)" font-family="sans-serif" font-size="10px" fill="#000" opacity="1">17:15</text><text text-anchor="end" transform="translate(610,7) rotate(270) translate(0,3)" font-family="sans-serif" font-size="10px" fill="#000" opacity="1">17:30</text><text text-anchor="end" transform="translate(630,7) rotate(270) translate(0,3)" font-family="sans-serif" font-size="10px" fill="#000" opacity="1">17:45</text></g><g class="mark-rule role-axis-domain" pointer-events="none"><line transform="translate(0,0)" x2="640" y2="0" stroke="#888" stroke-width="1" opacity="1"/></g><g class="mark-text role-axis-title" pointer-events="none"><text text-anchor="middle" transform="translate(320,45.0244140625)" font-family="sans-serif" font-size="11px" font-weight="bold" fill="#000" opacity="1">start_time</text></g></g><path class="foreground" aria-hidden="true" d="" pointer-events="none" display="none"/></g></g></g><path class="foreground" aria-hidden="true" d="" display="none"/></g><g transform="translate(662,301)"><path class="background" aria-hidden="true" d="M0,0h640v0h-640Z"/><g><g class="mark-group role-axis" role="graphics-symbol" aria-roledescription="axis" aria-label="X-axis titled 'start_time' for a discrete scale with 32 values: 06:30, 07:00, 08:00, 08:15, 08:30, ending with 17:45"><g transform="translate(0.5,0.5)"><path class="background" aria-hidden="true" d="M0,0h0v0h0Z" pointer-events="none"/><g><g class="mark-rule role-axis-tick" pointer-events="none"><line transform="translate(10,0)" x2="0" y2="5" stroke="#888" stroke-width="1" opacity="1"/><line transform="translate(30,0)" x2="0" y2="5" stroke="#888" stroke-width="1" opacity="1"/><line transform="translate(50,0)" x2="0" y2="5" stroke="#888" stroke-width="1" opacity="1"/><line transform="translate(70,0)" x2="0" y2="5" stroke="#888" stroke-width="1" opacity="1"/><line transform="translate(90,0)" x2="0" y2="5" stroke="#888" stroke-width="1" opacity="1"/><line transform="translate(110,0)" x2="0" y2="5" stroke="#888" stroke-width="1" opacity="1"/><line transform="translate(130,0)" x2="0" y2="5" stroke="#888" stroke-width="1" opacity="1"/><line transform="translate(150,0)" x2="0" y2="5" stroke="#888" stroke-width="1" opacity="1"/><line transform="translate(170,0)" x2="0" y2="5" stroke="#888" stroke-width="1" opacity="1"/><line transform="translate(190,0)" x2="0" y2="5" stroke="#888" stroke-width="1" opacity="1"/><line transform="translate(210,0)" x2="0" y2="5" stroke="#888" stroke-width="1" opacity="1"/><line transform="translate(230,0)" x2="0" y2="5" stroke="#888" stroke-width="1" opacity="1"/><line transform="translate(250,0)" x2="0" y2="5" stroke="#888" stroke-width="1" opacity="1"/><line transform="translate(270,0)" x2="0" y2="5" stroke="#888" stroke-width="1" opacity="1"/><line transform="translate(290,0)" x2="0" y2="5" stroke="#888" stroke-width="1" opacity="1"/><line transform="translate(310,0)" x2="0" y2="5" stroke="#888" stroke-width="1" opacity="1"/><line transform="translate(330,0)" x2="0" y2="5" stroke="#888" stroke-width="1" opacity="1"/><line transform="translate(350,0)" x2="0" y2="5" stroke="#888" stroke-width="1" opacity="1"/><line transform="translate(370,0)" x2="0" y2="5" stroke="#888" stroke-width="1" opacity="1"/><line transform="translate(390,0)" x2="0" y2="5" stroke="#888" stroke-width="1" opacity="1"/><line transform="translate(410,0)" x2="0" y2="5" stroke="#888" stroke-width="1" opacity="1"/><line transform="translate(430,0)" x2="0" y2="5" stroke="#888" stroke-width="1" opacity="1"/><line transform="translate(450,0)" x2="0" y2="5" stroke="#888" stroke-width="1" opacity="1"/><line transform="translate(470,0)" x2="0" y2="5" stroke="#888" stroke-width="1" opacity="1"/><line transform="translate(490,0)" x2="0" y2="5" stroke="#888" stroke-width="1" opacity="1"/><line transform="translate(510,0)" x2="0" y2="5" stroke="#888" stroke-width="1" opacity="1"/><line transform="translate(530,0)" x2="0" y2="5" stroke="#888" stroke-width="1" opacity="1"/><line transform="translate(550,0)" x2="0" y2="5" stroke="#888" stroke-width="1" opacity="1"/><line transform="translate(570,0)" x2="0" y2="5" stroke="#888" stroke-width="1" opacity="1"/><line transform="translate(590,0)" x2="0" y2="5" stroke="#888" stroke-width="1" opacity="1"/><line transform="translate(610,0)" x2="0" y2="5" stroke="#888" stroke-width="1" opacity="1"/><line transform="translate(630,0)" x2="0" y2="5" stroke="#888" stroke-width="1" opacity="1"/></g><g class="mark-text role-axis-label" pointer-events="none"><text text-anchor="end" transform="translate(10,7) rotate(270) translate(0,3)" font-family="sans-serif" font-size="10px" fill="#000" opacity="1">06:30</text><text text-anchor="end" transform="translate(30,7) rotate(270) translate(0,3)" font-family="sans-serif" font-size="10px" fill="#000" opacity="1">07:00</text><text text-anchor="end" transform="translate(50,7) rotate(270) translate(0,3)" font-family="sans-serif" font-size="10px" fill="#000" opacity="1">08:00</text><text text-anchor="end" transform="translate(70,7) rotate(270) translate(0,3)" font-family="sans-serif" font-size="10px" fill="#000" opacity="1">08:15</text><text text-anchor="end" transform="translate(90,7) rotate(270) translate(0,3)" font-family="sans-serif" font-size="10px" fill="#000" opacity="1">08:30</text><text text-anchor="end" transform="translate(110,7) rotate(270) translate(0,3)" font-family="sans-serif" font-size="10px" fill="#000" opacity="1">09:00</text><text text-anchor="end" transform="translate(130,7) rotate(270) translate(0,3)" font-family="sans-serif" font-size="10px" fill="#000" opacity="1">09:15</text><text text-anchor="end" transform="translate(150,7) rotate(270) translate(0,3)" font-family="sans-serif" font-size="10px" fill="#000" opacity="1">09:30</text><text text-anchor="end" transform="translate(170,7) rotate(270) translate(0,3)" font-family="sans-serif" font-size="10px" fill="#000" opacity="1">10:00</text><text text-anchor="end" transform="translate(190,7) rotate(270) translate(0,3)" font-family="sans-serif" font-size="10px" fill="#000" opacity="1">11:00</text><text text-anchor="end" transform="translate(210,7) rotate(270) translate(0,3)" font-family="sans-serif" font-size="10px" fill="#000" opacity="1">11:15</text><text text-anchor="end" transform="translate(230,7) rotate(270) translate(0,3)" font-family="sans-serif" font-size="10px" fill="#000" opacity="1">11:30</text><text text-anchor="end" transform="translate(250,7) rotate(270) translate(0,3)" font-family="sans-serif" font-size="10px" fill="#000" opacity="1">11:45</text><text text-anchor="end" transform="translate(270,7) rotate(270) translate(0,3)" font-family="sans-serif" font-size="10px" fill="#000" opacity="1">12:00</text><text text-anchor="end" transform="translate(290,7) rotate(270) translate(0,3)" font-family="sans-serif" font-size="10px" fill="#000" opacity="1">12:15</text><text text-anchor="end" transform="translate(310,7) rotate(270) translate(0,3)" font-family="sans-serif" font-size="10px" fill="#000" opacity="1">13:00</text><text text-anchor="end" transform="translate(330,7) rotate(270) translate(0,3)" font-family="sans-serif" font-size="10px" fill="#000" opacity="1">14:00</text><text text-anchor="end" transform="translate(350,7) rotate(270) translate(0,3)" font-family="sans-serif" font-size="10px" fill="#000" opacity="1">14:15</text><text text-anchor="end" transform="translate(370,7) rotate(270) translate(0,3)" font-family="sans-serif" font-size="10px" fill="#000" opacity="1">14:30</text><text text-anchor="end" transform="translate(390,7) rotate(270) translate(0,3)" font-family="sans-serif" font-size="10px" fill="#000" opacity="1">14:45</text><text text-anchor="end" transform="translate(410,7) rotate(270) translate(0,3)" font-family="sans-serif" font-size="10px" fill="#000" opacity="1">15:00</text><text text-anchor="end" transform="translate(430,7) rotate(270) translate(0,3)" font-family="sans-serif" font-size="10px" fill="#000" opacity="1">15:15</text><text text-anchor="end" transform="translate(450,7) rotate(270) translate(0,3)" font-family="sans-serif" font-size="10px" fill="#000" opacity="1">15:30</text><text text-anchor="end" transform="translate(470,7) rotate(270) translate(0,3)" font-family="sans-serif" font-size="10px" fill="#000" opacity="1">15:45</text><text text-anchor="end" transform="translate(490,7) rotate(270) translate(0,3)" font-family="sans-serif" font-size="10px" fill="#000" opacity="1">16:00</text><text text-anchor="end" transform="translate(510,7) rotate(270) translate(0,3)" font-family="sans-serif" font-size="10px" fill="#000" opacity="1">16:15</text><text text-anchor="end" transform="translate(530,7) rotate(270) translate(0,3)" font-family="sans-serif" font-size="10px" fill="#000" opacity="1">16:30</text><text text-anchor="end" transform="translate(550,7) rotate(270) translate(0,3)" font-family="sans-serif" font-size="10px" fill="#000" opacity="1">16:45</text><text text-anchor="end" transform="translate(570,7) rotate(270) translate(0,3)" font-family="sans-serif" font-size="10px" fill="#000" opacity="1">17:00</text><text text-anchor="end" transform="translate(590,7) rotate(270) translate(0,3)" font-family="sans-serif" font-size="10px" fill="#000" opacity="1">17:15</text><text text-anchor="end" transform="translate(610,7) rotate(270) translate(0,3)" font-family="sans-serif" font-size="10px" fill="#000" opacity="1">17:30</text><text text-anchor="end" transform="translate(630,7) rotate(270) translate(0,3)" font-family="sans-serif" font-size="10px" fill="#000" opacity="1">17:45</text></g><g class="mark-rule role-axis-domain" pointer-events="none"><line transform="translate(0,0)" x2="640" y2="0" stroke="#888" stroke-width="1" opacity="1"/></g><g class="mark-text role-axis-title" pointer-events="none"><text text-anchor="middle" transform="translate(320,45.0244140625)" font-family="sans-serif" font-size="11px" font-weight="bold" fill="#000" opacity="1">start_time</text></g></g><path class="foreground" aria-hidden="true" d="" pointer-events="none" display="none"/></g></g></g><path class="foreground" aria-hidden="true" d="" display="none"/></g></g><g class="mark-group role-scope cell" role="graphics-object" aria-roledescription="group mark container"><g transform="translate(0,0)"><path class="background" aria-hidden="true" d="M0.5,0.5h640v300h-640Z" stroke="#ddd"/><g><g class="mark-group role-axis" aria-hidden="true"><g transform="translate(0.5,0.5)"><path class="background" aria-hidden="true" d="M0,0h0v0h0Z" pointer-events="none"/><g><g class="mark-rule role-axis-grid" pointer-events="none"><line transform="translate(0,300)" x2="640" y2="0" stroke="#ddd" stroke-width="1" opacity="1"/><line transform="translate(0,270)" x2="640" y2="0" stroke="#ddd" stroke-width="1" opacity="1"/><line transform="translate(0,240)" x2="640" y2="0" stroke="#ddd" stroke-width="1" opacity="1"/><line transform="translate(0,210)" x2="640" y2="0" stroke="#ddd" stroke-width="1" opacity="1"/><line transform="translate(0,180)" x2="640" y2="0" stroke="#ddd" stroke-width="1" opacity="1"/><line transform="translate(0,150)" x2="640" y2="0" stroke="#ddd" stroke-width="1" opacity="1"/><line transform="translate(0,120)" x2="640" y2="0" stroke="#ddd" stroke-width="1" opacity="1"/><line transform="translate(0,90)" x2="640" y2="0" stroke="#ddd" stroke-width="1" opacity="1"/><line transform="translate(0,60)" x2="640" y2="0" stroke="#ddd" stroke-width="1" opacity="1"/><line transform="translate(0,30)" x2="640" y2="0" stroke="#ddd" stroke-width="1" opacity="1"/><line transform="translate(0,0)" x2="640" y2="0" stroke="#ddd" stroke-width="1" opacity="1"/></g></g><path class="foreground" aria-hidden="true" d="" pointer-events="none" display="none"/></g></g><g class="mark-group role-scope child_pathgroup" role="graphics-object" aria-roledescription="group mark container"><g transform="translate(0,0)"><path class="background" aria-hidden="true" d="M0,0h640v300h-640Z"/><g><g class="mark-line role-mark child_marks" role="graphics-object" aria-roledescription="line mark container"><path aria-label="attendee_type: In-person; start_time: 06:30; avg_rating: 5" role="graphics-symbol" aria-roledescription="line mark" d="M10,0L10,0L50,18.358208955223887L50,18.358208955223887L50,18.358208955223887L50,18.358208955223887L50,18.358208955223887L50,18.358208955223887L50,18.358208955223887L50,18.358208955223887L50,18.358208955223887L50,18.358208955223887L50,18.358208955223887L50,18.358208955223887L50,18.358208955223887L50,18.358208955223887L50,18.358208955223887L50,18.358208955223887L50,18.358208955223887L50,18.358208955223887L50,18.358208955223887L50,18.358208955223887L50,18.358208955223887L50,18.358208955223887L50,18.358208955223887L50,18.358208955223887L50,18.358208955223887L50,18.358208955223887L50,18.358208955223887L50,18.358208955223887L50,18.358208955223887L50,18.358208955223887L50,18.358208955223887L50,18.358208955223887L50,18.358208955223887L50,18.358208955223887L50,18.358208955223887L50,18.358208955223887L50,18.358208955223887L50,18.358208955223887L50,18.358208955223887L50,18.358208955223887L50,18.358208955223887L50,18.358208955223887L50,18.358208955223887L50,18.358208955223887L50,18.358208955223887L50,18.358208955223887L50,18.358208955223887L50,18.358208955223887L50,18.358208955223887L50,18.358208955223887L50,18.358208955223887L50,18.358208955223887L50,18.358208955223887L50,18.358208955223887L50,18.358208955223887L50,18.358208955223887L50,18.358208955223887L50,18.358208955223887L50,18.358208955223887L50,18.358208955223887L50,18.358208955223887L50,18.358208955223887L50,18.358208955223887L50,18.358208955223887L50,18.358208955223887L50,18.358208955223887L50,18.358208955223887L50,18.358208955223887L50,18.358208955223887L50,18.358208955223887L50,18.358208955223887L50,18.358208955223887L50,18.358208955223887L50,18.358208955223887L50,18.358208955223887L50,18.358208955223887L50,18.358208955223887L50,18.358208955223887L50,18.358208955223887L50,18.358208955223887L50,18.358208955223887L50,18.358208955223887L50,18.358208955223887L50,18.358208955223887L50,18.358208955223887L50,18.358208955223887L50,18.358208955223887L50,18.358208955223887L50,18.358208955223887L50,18.358208955223887L50,18.358208955223887L50,18.358208955223887L50,18.358208955223887L50,18.358208955223887L50,18.358208955223887L50,18.358208955223887L50,18.358208955223887L50,18.358208955223887L50,18.358208955223887L50,18.358208955223887L50,18.358208955223887L50,18.358208955223887L50,18.358208955223887L50,18.358208955223887L50,18.358208955223887L50,18.358208955223887L50,18.358208955223887L50,18.358208955223887L50,18.358208955223887L50,18.358208955223887L50,18.358208955223887L50,18.358208955223887L50,18.358208955223887L50,18.358208955223887L50,18.358208955223887L50,18.358208955223887L50,18.358208955223887L50,18.358208955223887L50,18.358208955223887L50,18.358208955223887L50,18.358208955223887L50,18.358208955223887L50,18.358208955223887L50,18.358208955223887L50,18.358208955223887L50,18.358208955223887L50,18.358208955223887L50,18.358208955223887L50,18.358208955223887L50,18.358208955223887L50,18.358208955223887L50,18.358208955223887L50,18.358208955223887L50,18.358208955223887L110,30.545454545454543L110,30.545454545454543L110,30.545454545454543L110,30.545454545454543L110,30.545454545454543L110,30.545454545454543L110,30.545454545454543L110,30.545454545454543L110,30.545454545454543L110,30.545454545454543L110,30.545454545454543L110,30.545454545454543L110,30.545454545454543L110,30.545454545454543L110,30.545454545454543L110,30.545454545454543L110,30.545454545454543L110,30.545454545454543L110,30.545454545454543L110,30.545454545454543L110,30.545454545454543L110,30.545454545454543L110,30.545454545454543L110,30.545454545454543L110,30.545454545454543L110,30.545454545454543L110,30.545454545454543L110,30.545454545454543L110,30.545454545454543L110,30.545454545454543L110,30.545454545454543L110,30.545454545454543L110,30.545454545454543L110,30.545454545454543L110,30.545454545454543L110,30.545454545454543L110,30.545454545454543L110,30.545454545454543L110,30.545454545454543L110,30.545454545454543L110,30.545454545454543L110,30.545454545454543L110,30.545454545454543L110,30.545454545454543L110,30.545454545454543L110,30.545454545454543L110,30.545454545454543L110,30.545454545454543L110,30.545454545454543L110,30.545454545454543L110,30.545454545454543L110,30.545454545454543L110,30.545454545454543L110,30.545454545454543L110,30.545454545454543L110,30.545454545454543L110,30.545454545454543L110,30.545454545454543L110,30.545454545454543L110,30.545454545454543L110,30.545454545454543L110,30.545454545454543L110,30.545454545454543L110,30.545454545454543L110,30.545454545454543L110,30.545454545454543L110,30.545454545454543L110,30.545454545454543L110,30.545454545454543L110,30.545454545454543L110,30.545454545454543L110,30.545454545454543L110,30.545454545454543L110,30.545454545454543L110,30.545454545454543L110,30.545454545454543L110,30.545454545454543L110,30.545454545454543L110,30.545454545454543L110,30.545454545454543L110,30.545454545454543L110,30.545454545454543L110,30.545454545454543L110,30.545454545454543L110,30.545454545454543L110,30.545454545454543L110,30.545454545454543L110,30.545454545454543L110,30.545454545454543L110,30.545454545454543L110,30.545454545454543L110,30.545454545454543L110,30.545454545454543L110,30.545454545454543L110,30.545454545454543L110,30.545454545454543L110,30.545454545454543L110,30.545454545454543L110,30.545454545454543L110,30.545454545454543L110,30.545454545454543L110,30.545454545454543L110,30.545454545454543L110,30.545454545454543L110,30.545454545454543L110,30.545454545454543L110,30.545454545454543L110,30.545454545454543L110,30.545454545454543L110,30.545454545454543L110,30.545454545454543L110,30.545454545454543L110,30.545454545454543L110,30.545454545454543L110,30.545454545454543L110,30.545454545454543L110,30.545454545454543L110,30.545454545454543L110,30.545454545454543L110,30.545454545454543L110,30.545454545454543L110,30.545454545454543L110,30.545454545454543L110,30.545454545454543L110,30.545454545454543L110,30.545454545454543L110,30.545454545454543L110,30.545454545454543L110,30.545454545454543L110,30.545454545454543L110,30.545454545454543L110,30.545454545454543L110,30.545454545454543L110,30.545454545454543L110,30.545454545454543L110,30.545454545454543L110,30.545454545454543L110,30.545454545454543L110,30.545454545454543L110,30.545454545454543L110,30.545454545454543L110,30.545454545454543L110,30.545454545454543L110,30.545454545454543L110,30.545454545454543L110,30.545454545454543L110,30.545454545454543L110,30.545454545454543L110,30.545454545454543L110,30.545454545454543L110,30.545454545454543L110,30.545454545454543L110,30.545454545454543L110,30.545454545454543L110,30.545454545454543L110,30.545454545454543L110,30.545454545454543L110,30.545454545454543L110,30.545454545454543L110,30.545454545454543L110,30.545454545454543L110,30.545454545454543L110,30.545454545454543L110,30.545454545454543L110,30.545454545454543L170,33.42857142857143L170,33.42857142857143L170,33.42857142857143L170,33.42857142857143L170,33.42857142857143L170,33.42857142857143L170,33.42857142857143L170,33.42857142857143L170,33.42857142857143L170,33.42857142857143L170,33.42857142857143L170,33.42857142857143L170,33.42857142857143L170,33.42857142857143L170,33.42857142857143L170,33.42857142857143L170,33.42857142857143L170,33.42857142857143L170,33.42857142857143L170,33.42857142857143L170,33.42857142857143L170,33.42857142857143L170,33.42857142857143L170,33.42857142857143L170,33.42857142857143L170,33.42857142857143L170,33.42857142857143L170,33.42857142857143L170,33.42857142857143L170,33.42857142857143L170,33.42857142857143L170,33.42857142857143L170,33.42857142857143L170,33.42857142857143L170,33.42857142857143L170,33.42857142857143L170,33.42857142857143L170,33.42857142857143L170,33.42857142857143L170,33.42857142857143L170,33.42857142857143L170,33.42857142857143L170,33.42857142857143L170,33.42857142857143L170,33.42857142857143L170,33.42857142857143L170,33.42857142857143L170,33.42857142857143L170,33.42857142857143L170,33.42857142857143L170,33.42857142857143L170,33.42857142857143L170,33.42857142857143L170,33.42857142857143L170,33.42857142857143L170,33.42857142857143L170,33.42857142857143L170,33.42857142857143L170,33.42857142857143L170,33.42857142857143L170,33.42857142857143L170,33.42857142857143L170,33.42857142857143L170,33.42857142857143L170,33.42857142857143L170,33.42857142857143L170,33.42857142857143L170,33.42857142857143L170,33.42857142857143L170,33.42857142857143L190,38.01242236024843L190,38.01242236024843L190,38.01242236024843L190,38.01242236024843L190,38.01242236024843L190,38.01242236024843L190,38.01242236024843L190,38.01242236024843L190,38.01242236024843L210,38.01242236024843L210,38.01242236024843L210,38.01242236024843L210,38.01242236024843L210,38.01242236024843L210,38.01242236024843L210,38.01242236024843L210,38.01242236024843L210,38.01242236024843L210,38.01242236024843L210,38.01242236024843L210,38.01242236024843L210,38.01242236024843L210,38.01242236024843L210,38.01242236024843L210,38.01242236024843L210,38.01242236024843L210,38.01242236024843L210,38.01242236024843L210,38.01242236024843L210,38.01242236024843L210,38.01242236024843L210,38.01242236024843L210,38.01242236024843L210,38.01242236024843L210,38.01242236024843L210,38.01242236024843L210,38.01242236024843L210,38.01242236024843L210,38.01242236024843L210,38.01242236024843L210,38.01242236024843L210,38.01242236024843L210,38.01242236024843L210,38.01242236024843L210,38.01242236024843L210,38.01242236024843L210,38.01242236024843L210,38.01242236024843L210,38.01242236024843L210,38.01242236024843L210,38.01242236024843L210,38.01242236024843L210,38.01242236024843L210,38.01242236024843L210,38.01242236024843L210,38.01242236024843L210,38.01242236024843L210,38.01242236024843L210,38.01242236024843L210,38.01242236024843L210,38.01242236024843L210,38.01242236024843L210,38.01242236024843L210,38.01242236024843L210,38.01242236024843L210,38.01242236024843L210,38.01242236024843L210,38.01242236024843L210,38.01242236024843L210,38.01242236024843L210,38.01242236024843L210,38.01242236024843L210,38.01242236024843L210,38.01242236024843L210,38.01242236024843L210,38.01242236024843L210,38.01242236024843L210,38.01242236024843L210,38.01242236024843L210,38.01242236024843L210,38.01242236024843L210,38.01242236024843L210,38.01242236024843L210,38.01242236024843L210,38.01242236024843L210,38.01242236024843L210,38.01242236024843L210,38.01242236024843L210,38.01242236024843L210,38.01242236024843L210,38.01242236024843L210,38.01242236024843L210,38.01242236024843L210,38.01242236024843L210,38.01242236024843L210,38.01242236024843L210,38.01242236024843L210,38.01242236024843L210,38.01242236024843L210,38.01242236024843L210,38.01242236024843L210,38.01242236024843L210,38.01242236024843L210,38.01242236024843L210,38.01242236024843L210,38.01242236024843L210,38.01242236024843L210,38.01242236024843L210,38.01242236024843L210,38.01242236024843L210,38.01242236024843L210,38.01242236024843L210,38.01242236024843L210,38.01242236024843L210,38.01242236024843L210,38.01242236024843L210,38.01242236024843L210,38.01242236024843L210,38.01242236024843L210,38.01242236024843L210,38.01242236024843L210,38.01242236024843L210,38.01242236024843L210,38.01242236024843L210,38.01242236024843L210,38.01242236024843L210,38.01242236024843L210,38.01242236024843L210,38.01242236024843L210,38.01242236024843L210,38.01242236024843L210,38.01242236024843L210,38.01242236024843L210,38.01242236024843L210,38.01242236024843L210,38.01242236024843L210,38.01242236024843L210,38.01242236024843L210,38.01242236024843L210,38.01242236024843L210,38.01242236024843L210,38.01242236024843L210,38.01242236024843L210,38.01242236024843L210,38.01242236024843L210,38.01242236024843L210,38.01242236024843L210,38.01242236024843L210,38.01242236024843L210,38.01242236024843L210,38.01242236024843L210,38.01242236024843L210,38.01242236024843L210,38.01242236024843L210,38.01242236024843L210,38.01242236024843L210,38.01242236024843L210,38.01242236024843L210,38.01242236024843L210,38.01242236024843L210,38.01242236024843L270,9.230769230769265L290,9.230769230769265L290,9.230769230769265L290,9.230769230769265L290,9.230769230769265L290,9.230769230769265L290,9.230769230769265L290,9.230769230769265L290,9.230769230769265L290,9.230769230769265L290,9.230769230769265L290,9.230769230769265L290,9.230769230769265L310,7.118644067796598L310,7.118644067796598L310,7.118644067796598L310,7.118644067796598L310,7.118644067796598L310,7.118644067796598L310,7.118644067796598L310,7.118644067796598L310,7.118644067796598L310,7.118644067796598L310,7.118644067796598L310,7.118644067796598L310,7.118644067796598L310,7.118644067796598L310,7.118644067796598L310,7.118644067796598L310,7.118644067796598L310,7.118644067796598L310,7.118644067796598L310,7.118644067796598L310,7.118644067796598L310,7.118644067796598L310,7.118644067796598L310,7.118644067796598L310,7.118644067796598L310,7.118644067796598L310,7.118644067796598L310,7.118644067796598L310,7.118644067796598L310,7.118644067796598L310,7.118644067796598L310,7.118644067796598L310,7.118644067796598L310,7.118644067796598L310,7.118644067796598L310,7.118644067796598L310,7.118644067796598L310,7.118644067796598L310,7.118644067796598L310,7.118644067796598L310,7.118644067796598L310,7.118644067796598L310,7.118644067796598L310,7.118644067796598L310,7.118644067796598L310,7.118644067796598L310,7.118644067796598L310,7.118644067796598L310,7.118644067796598L310,7.118644067796598L310,7.118644067796598L310,7.118644067796598L310,7.118644067796598L310,7.118644067796598L310,7.118644067796598L310,7.118644067796598L310,7.118644067796598L310,7.118644067796598L310,7.118644067796598L350,27.938931297709924L350,27.938931297709924L350,27.938931297709924L350,27.938931297709924L350,27.938931297709924L350,27.938931297709924L350,27.938931297709924L350,27.938931297709924L350,27.938931297709924L350,27.938931297709924L350,27.938931297709924L350,27.938931297709924L350,27.938931297709924L350,27.938931297709924L350,27.938931297709924L350,27.938931297709924L350,27.938931297709924L350,27.938931297709924L350,27.938931297709924L350,27.938931297709924L350,27.938931297709924L350,27.938931297709924L350,27.938931297709924L350,27.938931297709924L350,27.938931297709924L350,27.938931297709924L350,27.938931297709924L350,27.938931297709924L350,27.938931297709924L350,27.938931297709924L350,27.938931297709924L350,27.938931297709924L350,27.938931297709924L350,27.938931297709924L350,27.938931297709924L350,27.938931297709924L350,27.938931297709924L350,27.938931297709924L350,27.938931297709924L350,27.938931297709924L350,27.938931297709924L350,27.938931297709924L350,27.938931297709924L350,27.938931297709924L350,27.938931297709924L350,27.938931297709924L350,27.938931297709924L350,27.938931297709924L350,27.938931297709924L350,27.938931297709924L350,27.938931297709924L350,27.938931297709924L350,27.938931297709924L350,27.938931297709924L350,27.938931297709924L350,27.938931297709924L350,27.938931297709924L350,27.938931297709924L350,27.938931297709924L350,27.938931297709924L350,27.938931297709924L350,27.938931297709924L350,27.938931297709924L350,27.938931297709924L350,27.938931297709924L350,27.938931297709924L350,27.938931297709924L350,27.938931297709924L350,27.938931297709924L350,27.938931297709924L350,27.938931297709924L350,27.938931297709924L350,27.938931297709924L350,27.938931297709924L350,27.938931297709924L350,27.938931297709924L350,27.938931297709924L350,27.938931297709924L350,27.938931297709924L350,27.938931297709924L350,27.938931297709924L350,27.938931297709924L350,27.938931297709924L350,27.938931297709924L350,27.938931297709924L350,27.938931297709924L350,27.938931297709924L350,27.938931297709924L350,27.938931297709924L350,27.938931297709924L350,27.938931297709924L350,27.938931297709924L350,27.938931297709924L350,27.938931297709924L350,27.938931297709924L350,27.938931297709924L350,27.938931297709924L350,27.938931297709924L350,27.938931297709924L350,27.938931297709924L350,27.938931297709924L350,27.938931297709924L350,27.938931297709924L350,27.938931297709924L350,27.938931297709924L350,27.938931297709924L350,27.938931297709924L350,27.938931297709924L350,27.938931297709924L350,27.938931297709924L350,27.938931297709924L350,27.938931297709924L350,27.938931297709924L350,27.938931297709924L350,27.938931297709924L350,27.938931297709924L370,27.938931297709924L370,27.938931297709924L370,27.938931297709924L370,27.938931297709924L370,27.938931297709924L370,27.938931297709924L370,27.938931297709924L370,27.938931297709924L370,27.938931297709924L390,31.983471074380166L390,31.983471074380166L390,31.983471074380166L390,31.983471074380166L390,31.983471074380166L390,31.983471074380166L430,34.53237410071941L430,34.53237410071941L430,34.53237410071941L430,34.53237410071941L430,34.53237410071941L430,34.53237410071941L430,34.53237410071941L430,34.53237410071941L430,34.53237410071941L430,34.53237410071941L430,34.53237410071941L430,34.53237410071941L430,34.53237410071941L430,34.53237410071941L430,34.53237410071941L430,34.53237410071941L430,34.53237410071941L430,34.53237410071941L430,34.53237410071941L430,34.53237410071941L430,34.53237410071941L430,34.53237410071941L430,34.53237410071941L430,34.53237410071941L430,34.53237410071941L430,34.53237410071941L430,34.53237410071941L430,34.53237410071941L430,34.53237410071941L430,34.53237410071941L430,34.53237410071941L430,34.53237410071941L430,34.53237410071941L430,34.53237410071941L430,34.53237410071941L430,34.53237410071941L430,34.53237410071941L430,34.53237410071941L430,34.53237410071941L430,34.53237410071941L430,34.53237410071941L430,34.53237410071941L430,34.53237410071941L430,34.53237410071941L430,34.53237410071941L430,34.53237410071941L430,34.53237410071941L430,34.53237410071941L430,34.53237410071941L430,34.53237410071941L430,34.53237410071941L430,34.53237410071941L430,34.53237410071941L430,34.53237410071941L430,34.53237410071941L430,34.53237410071941L430,34.53237410071941L430,34.53237410071941L430,34.53237410071941L430,34.53237410071941L430,34.53237410071941L430,34.53237410071941L430,34.53237410071941L430,34.53237410071941L430,34.53237410071941L430,34.53237410071941L430,34.53237410071941L430,34.53237410071941L430,34.53237410071941L430,34.53237410071941L430,34.53237410071941L430,34.53237410071941L430,34.53237410071941L430,34.53237410071941L430,34.53237410071941L430,34.53237410071941L430,34.53237410071941L430,34.53237410071941L430,34.53237410071941L430,34.53237410071941L430,34.53237410071941L430,34.53237410071941L430,34.53237410071941L430,34.53237410071941L430,34.53237410071941L430,34.53237410071941L430,34.53237410071941L430,34.53237410071941L430,34.53237410071941L430,34.53237410071941L430,34.53237410071941L430,34.53237410071941L430,34.53237410071941L430,34.53237410071941L430,34.53237410071941L430,34.53237410071941L430,34.53237410071941L430,34.53237410071941L430,34.53237410071941L430,34.53237410071941L430,34.53237410071941L430,34.53237410071941L430,34.53237410071941L430,34.53237410071941L430,34.53237410071941L430,34.53237410071941L430,34.53237410071941L430,34.53237410071941L430,34.53237410071941L430,34.53237410071941L430,34.53237410071941L450,36.09022556390977L450,36.09022556390977L450,36.09022556390977L450,36.09022556390977L450,36.09022556390977L450,36.09022556390977L470,24.835164835164846L470,24.835164835164846L470,24.835164835164846L470,24.835164835164846L470,24.835164835164846L470,24.835164835164846L470,24.835164835164846L470,24.835164835164846L470,24.835164835164846L470,24.835164835164846L470,24.835164835164846L470,24.835164835164846L470,24.835164835164846L470,24.835164835164846L470,24.835164835164846L470,24.835164835164846L510,15.18518518518518L510,15.18518518518518L510,15.18518518518518L510,15.18518518518518L510,15.18518518518518L510,15.18518518518518L510,15.18518518518518L510,15.18518518518518L510,15.18518518518518L510,15.18518518518518L510,15.18518518518518L510,15.18518518518518L510,15.18518518518518L510,15.18518518518518L510,15.18518518518518L510,15.18518518518518L510,15.18518518518518L510,15.18518518518518L510,15.18518518518518L510,15.18518518518518L510,15.18518518518518L510,15.18518518518518L510,15.18518518518518L510,15.18518518518518L510,15.18518518518518L510,15.18518518518518L510,15.18518518518518L510,15.18518518518518L510,15.18518518518518L510,15.18518518518518L510,15.18518518518518L510,15.18518518518518L510,15.18518518518518L510,15.18518518518518L510,15.18518518518518L510,15.18518518518518L510,15.18518518518518L510,15.18518518518518L510,15.18518518518518L510,15.18518518518518L510,15.18518518518518L510,15.18518518518518L510,15.18518518518518L510,15.18518518518518L510,15.18518518518518L510,15.18518518518518L510,15.18518518518518L510,15.18518518518518L510,15.18518518518518L510,15.18518518518518L510,15.18518518518518L510,15.18518518518518L510,15.18518518518518L510,15.18518518518518L510,15.18518518518518L510,15.18518518518518L510,15.18518518518518L510,15.18518518518518L510,15.18518518518518L510,15.18518518518518L510,15.18518518518518L510,15.18518518518518L510,15.18518518518518L510,15.18518518518518L510,15.18518518518518L510,15.18518518518518L510,15.18518518518518L510,15.18518518518518L510,15.18518518518518L510,15.18518518518518L510,15.18518518518518L510,15.18518518518518L510,15.18518518518518L510,15.18518518518518L510,15.18518518518518L510,15.18518518518518L510,15.18518518518518L510,15.18518518518518L510,15.18518518518518L510,15.18518518518518L510,15.18518518518518L510,15.18518518518518L510,15.18518518518518L510,15.18518518518518L510,15.18518518518518L510,15.18518518518518L510,15.18518518518518L510,15.18518518518518L510,15.18518518518518L510,15.18518518518518L510,15.18518518518518L510,15.18518518518518L510,15.18518518518518L510,15.18518518518518L510,15.18518518518518L510,15.18518518518518L510,15.18518518518518L510,15.18518518518518L510,15.18518518518518L510,15.18518518518518L510,15.18518518518518L510,15.18518518518518L510,15.18518518518518L510,15.18518518518518L510,15.18518518518518L510,15.18518518518518L510,15.18518518518518L510,15.18518518518518L510,15.18518518518518L510,15.18518518518518L510,15.18518518518518L510,15.18518518518518L510,15.18518518518518L510,15.18518518518518L510,15.18518518518518L510,15.18518518518518L510,15.18518518518518L510,15.18518518518518L510,15.18518518518518L510,15.18518518518518L510,15.18518518518518L510,15.18518518518518L510,15.18518518518518L510,15.18518518518518L510,15.18518518518518L510,15.18518518518518L510,15.18518518518518L510,15.18518518518518L510,15.18518518518518L510,15.18518518518518L510,15.18518518518518L510,15.18518518518518L510,15.18518518518518L510,15.18518518518518L510,15.18518518518518L510,15.18518518518518L510,15.18518518518518L510,15.18518518518518L510,15.18518518518518L510,15.18518518518518L530,16.326530612244916L530,16.326530612244916L530,16.326530612244916L550,14.727272727272723L550,14.727272727272723L550,14.727272727272723L570,24.782608695652165L590,22.826086956521706L590,22.826086956521706L590,22.826086956521706L590,22.826086956521706L590,22.826086956521706L590,22.826086956521706L590,22.826086956521706L590,22.826086956521706L590,22.826086956521706L590,22.826086956521706L590,22.826086956521706L590,22.826086956521706L590,22.826086956521706L590,22.826086956521706L590,22.826086956521706L590,22.826086956521706L590,22.826086956521706L590,22.826086956521706L590,22.826086956521706L590,22.826086956521706L590,22.826086956521706L590,22.826086956521706L590,22.826086956521706L590,22.826086956521706L590,22.826086956521706L590,22.826086956521706L590,22.826086956521706L590,22.826086956521706L590,22.826086956521706L590,22.826086956521706L590,22.826086956521706L590,22.826086956521706L590,22.826086956521706L590,22.826086956521706L590,22.826086956521706L590,22.826086956521706L590,22.826086956521706L590,22.826086956521706L590,22.826086956521706L590,22.826086956521706L590,22.826086956521706L590,22.826086956521706L590,22.826086956521706L590,22.826086956521706L590,22.826086956521706L590,22.826086956521706L590,22.826086956521706L590,22.826086956521706L590,22.826086956521706L590,22.826086956521706L590,22.826086956521706L590,22.826086956521706L590,22.826086956521706L590,22.826086956521706L590,22.826086956521706L590,22.826086956521706L590,22.826086956521706L590,22.826086956521706L590,22.826086956521706L590,22.826086956521706L590,22.826086956521706L590,22.826086956521706L590,22.826086956521706L590,22.826086956521706L590,22.826086956521706L590,22.826086956521706L590,22.826086956521706L590,22.826086956521706L590,22.826086956521706L590,22.826086956521706L590,22.826086956521706L590,22.826086956521706L590,22.826086956521706L610,23.59550561797752L610,23.59550561797752L610,23.59550561797752L610,23.59550561797752L610,23.59550561797752L610,23.59550561797752L610,23.59550561797752L610,23.59550561797752L610,23.59550561797752L610,23.59550561797752L610,23.59550561797752L610,23.59550561797752L630,21.136363636363665L630,21.136363636363665L630,21.136363636363665" stroke="#4c78a8" stroke-width="2" opacity="0.8"/></g></g><path class="foreground" aria-hidden="true" d="" display="none"/></g><g transform="translate(0,0)"><path class="background" aria-hidden="true" d="M0,0h640v300h-640Z"/><g><g class="mark-line role-mark child_marks" role="graphics-object" aria-roledescription="line mark container"><path aria-label="attendee_type: Virtual; start_time: 08:00; avg_rating: 4.31325301205" role="graphics-symbol" aria-roledescription="line mark" d="M50,41.204819277108406L50,41.204819277108406L50,41.204819277108406L50,41.204819277108406L50,41.204819277108406L50,41.204819277108406L50,41.204819277108406L50,41.204819277108406L50,41.204819277108406L50,41.204819277108406L50,41.204819277108406L50,41.204819277108406L50,41.204819277108406L50,41.204819277108406L50,41.204819277108406L50,41.204819277108406L50,41.204819277108406L50,41.204819277108406L50,41.204819277108406L50,41.204819277108406L50,41.204819277108406L50,41.204819277108406L50,41.204819277108406L50,41.204819277108406L50,41.204819277108406L50,41.204819277108406L50,41.204819277108406L50,41.204819277108406L50,41.204819277108406L50,41.204819277108406L50,41.204819277108406L50,41.204819277108406L50,41.204819277108406L50,41.204819277108406L50,41.204819277108406L50,41.204819277108406L50,41.204819277108406L50,41.204819277108406L50,41.204819277108406L50,41.204819277108406L50,41.204819277108406L50,41.204819277108406L50,41.204819277108406L50,41.204819277108406L50,41.204819277108406L50,41.204819277108406L50,41.204819277108406L50,41.204819277108406L50,41.204819277108406L50,41.204819277108406L50,41.204819277108406L50,41.204819277108406L50,41.204819277108406L50,41.204819277108406L50,41.204819277108406L50,41.204819277108406L50,41.204819277108406L50,41.204819277108406L50,41.204819277108406L50,41.204819277108406L50,41.204819277108406L50,41.204819277108406L50,41.204819277108406L50,41.204819277108406L50,41.204819277108406L50,41.204819277108406L50,41.204819277108406L50,41.204819277108406L50,41.204819277108406L50,41.204819277108406L50,41.204819277108406L50,41.204819277108406L50,41.204819277108406L50,41.204819277108406L50,41.204819277108406L50,41.204819277108406L50,41.204819277108406L50,41.204819277108406L50,41.204819277108406L50,41.204819277108406L50,41.204819277108406L50,41.204819277108406L50,41.204819277108406L110,48.38709677419357L110,48.38709677419357L110,48.38709677419357L110,48.38709677419357L110,48.38709677419357L110,48.38709677419357L110,48.38709677419357L110,48.38709677419357L110,48.38709677419357L110,48.38709677419357L110,48.38709677419357L110,48.38709677419357L110,48.38709677419357L110,48.38709677419357L110,48.38709677419357L110,48.38709677419357L110,48.38709677419357L110,48.38709677419357L110,48.38709677419357L110,48.38709677419357L110,48.38709677419357L110,48.38709677419357L110,48.38709677419357L110,48.38709677419357L110,48.38709677419357L110,48.38709677419357L110,48.38709677419357L110,48.38709677419357L110,48.38709677419357L110,48.38709677419357L110,48.38709677419357L170,42.00000000000001L170,42.00000000000001L170,42.00000000000001L170,42.00000000000001L170,42.00000000000001L170,42.00000000000001L170,42.00000000000001L170,42.00000000000001L170,42.00000000000001L170,42.00000000000001L170,42.00000000000001L170,42.00000000000001L170,42.00000000000001L170,42.00000000000001L170,42.00000000000001L170,42.00000000000001L170,42.00000000000001L170,42.00000000000001L170,42.00000000000001L170,42.00000000000001L170,42.00000000000001L170,42.00000000000001L170,42.00000000000001L170,42.00000000000001L170,42.00000000000001L170,42.00000000000001L170,42.00000000000001L170,42.00000000000001L170,42.00000000000001L170,42.00000000000001L170,42.00000000000001L170,42.00000000000001L170,42.00000000000001L170,42.00000000000001L170,42.00000000000001L170,42.00000000000001L170,42.00000000000001L170,42.00000000000001L170,42.00000000000001L170,42.00000000000001L210,27.27272727272725L210,27.27272727272725L210,27.27272727272725L210,27.27272727272725L210,27.27272727272725L210,27.27272727272725L210,27.27272727272725L210,27.27272727272725L210,27.27272727272725L210,27.27272727272725L210,27.27272727272725L210,27.27272727272725L210,27.27272727272725L210,27.27272727272725L210,27.27272727272725L210,27.27272727272725L210,27.27272727272725L210,27.27272727272725L210,27.27272727272725L210,27.27272727272725L210,27.27272727272725L210,27.27272727272725L210,27.27272727272725L210,27.27272727272725L210,27.27272727272725L210,27.27272727272725L210,27.27272727272725L210,27.27272727272725L210,27.27272727272725L210,27.27272727272725L210,27.27272727272725L210,27.27272727272725L210,27.27272727272725L210,27.27272727272725L210,27.27272727272725L210,27.27272727272725L210,27.27272727272725L210,27.27272727272725L210,27.27272727272725L210,27.27272727272725L210,27.27272727272725L210,27.27272727272725L210,27.27272727272725L210,27.27272727272725L310,21.666666666666657L310,21.666666666666657L310,21.666666666666657L310,21.666666666666657L310,21.666666666666657L310,21.666666666666657L310,21.666666666666657L310,21.666666666666657L310,21.666666666666657L310,21.666666666666657L310,21.666666666666657L310,21.666666666666657L310,21.666666666666657L310,21.666666666666657L310,21.666666666666657L310,21.666666666666657L310,21.666666666666657L310,21.666666666666657L310,21.666666666666657L310,21.666666666666657L310,21.666666666666657L310,21.666666666666657L310,21.666666666666657L310,21.666666666666657L310,21.666666666666657L310,21.666666666666657L310,21.666666666666657L310,21.666666666666657L310,21.666666666666657L310,21.666666666666657L310,21.666666666666657L310,21.666666666666657L310,21.666666666666657L310,21.666666666666657L310,21.666666666666657L310,21.666666666666657L350,17.87234042553194L350,17.87234042553194L350,17.87234042553194L350,17.87234042553194L350,17.87234042553194L350,17.87234042553194L350,17.87234042553194L350,17.87234042553194L350,17.87234042553194L350,17.87234042553194L350,17.87234042553194L350,17.87234042553194L350,17.87234042553194L350,17.87234042553194L350,17.87234042553194L350,17.87234042553194L350,17.87234042553194L350,17.87234042553194L350,17.87234042553194L350,17.87234042553194L350,17.87234042553194L350,17.87234042553194L350,17.87234042553194L350,17.87234042553194L350,17.87234042553194L350,17.87234042553194L350,17.87234042553194L350,17.87234042553194L350,17.87234042553194L350,17.87234042553194L350,17.87234042553194L350,17.87234042553194L350,17.87234042553194L350,17.87234042553194L350,17.87234042553194L350,17.87234042553194L350,17.87234042553194L350,17.87234042553194L350,17.87234042553194L350,17.87234042553194L350,17.87234042553194L350,17.87234042553194L350,17.87234042553194L350,17.87234042553194L350,17.87234042553194L350,17.87234042553194L350,17.87234042553194L430,33.461538461538446L430,33.461538461538446L430,33.461538461538446L430,33.461538461538446L430,33.461538461538446L430,33.461538461538446L430,33.461538461538446L430,33.461538461538446L430,33.461538461538446L430,33.461538461538446L430,33.461538461538446L430,33.461538461538446L430,33.461538461538446L430,33.461538461538446L430,33.461538461538446L430,33.461538461538446L430,33.461538461538446L430,33.461538461538446L430,33.461538461538446L430,33.461538461538446L430,33.461538461538446L430,33.461538461538446L430,33.461538461538446L430,33.461538461538446L430,33.461538461538446L430,33.461538461538446L430,33.461538461538446L430,33.461538461538446L430,33.461538461538446L430,33.461538461538446L430,33.461538461538446L430,33.461538461538446L430,33.461538461538446L430,33.461538461538446L430,33.461538461538446L430,33.461538461538446L430,33.461538461538446L430,33.461538461538446L430,33.461538461538446L430,33.461538461538446L430,33.461538461538446L430,33.461538461538446L430,33.461538461538446L430,33.461538461538446L430,33.461538461538446L430,33.461538461538446L430,33.461538461538446L430,33.461538461538446L430,33.461538461538446L430,33.461538461538446L430,33.461538461538446L430,33.461538461538446L510,21.176470588235286L510,21.176470588235286L510,21.176470588235286L510,21.176470588235286L510,21.176470588235286L510,21.176470588235286L510,21.176470588235286L510,21.176470588235286L510,21.176470588235286L510,21.176470588235286L510,21.176470588235286L510,21.176470588235286L510,21.176470588235286L510,21.176470588235286L510,21.176470588235286L510,21.176470588235286L510,21.176470588235286L510,21.176470588235286L510,21.176470588235286L510,21.176470588235286L510,21.176470588235286L510,21.176470588235286L510,21.176470588235286L510,21.176470588235286L510,21.176470588235286L510,21.176470588235286L510,21.176470588235286L510,21.176470588235286L510,21.176470588235286L510,21.176470588235286L510,21.176470588235286L510,21.176470588235286L510,21.176470588235286L510,21.176470588235286L510,21.176470588235286L510,21.176470588235286L510,21.176470588235286L510,21.176470588235286L510,21.176470588235286L510,21.176470588235286L510,21.176470588235286L510,21.176470588235286L510,21.176470588235286L510,21.176470588235286L510,21.176470588235286L510,21.176470588235286L510,21.176470588235286L510,21.176470588235286L510,21.176470588235286L510,21.176470588235286L510,21.176470588235286L590,12.00000000000001L590,12.00000000000001L590,12.00000000000001L590,12.00000000000001L590,12.00000000000001L590,12.00000000000001L590,12.00000000000001L590,12.00000000000001L590,12.00000000000001L590,12.00000000000001L590,12.00000000000001L590,12.00000000000001L590,12.00000000000001L590,12.00000000000001L590,12.00000000000001" stroke="#f58518" stroke-width="2" opacity="0.8"/></g></g><path class="foreground" aria-hidden="true" d="" display="none"/></g></g></g><path class="foreground" aria-hidden="true" d="" display="none"/></g><g transform="translate(662,0)"><path class="background" aria-hidden="true" d="M0.5,0.5h640v300h-640Z" stroke="#ddd"/><g><g class="mark-group role-axis" aria-hidden="true"><g transform="translate(0.5,0.5)"><path class="background" aria-hidden="true" d="M0,0h0v0h0Z" pointer-events="none"/><g><g class="mark-rule role-axis-grid" pointer-events="none"><line transform="translate(0,300)" x2="640" y2="0" stroke="#ddd" stroke-width="1" opacity="1"/><line transform="translate(0,270)" x2="640" y2="0" stroke="#ddd" stroke-width="1" opacity="1"/><line transform="translate(0,240)" x2="640" y2="0" stroke="#ddd" stroke-width="1" opacity="1"/><line transform="translate(0,210)" x2="640" y2="0" stroke="#ddd" stroke-width="1" opacity="1"/><line transform="translate(0,180)" x2="640" y2="0" stroke="#ddd" stroke-width="1" opacity="1"/><line transform="translate(0,150)" x2="640" y2="0" stroke="#ddd" stroke-width="1" opacity="1"/><line transform="translate(0,120)" x2="640" y2="0" stroke="#ddd" stroke-width="1" opacity="1"/><line transform="translate(0,90)" x2="640" y2="0" stroke="#ddd" stroke-width="1" opacity="1"/><line transform="translate(0,60)" x2="640" y2="0" stroke="#ddd" stroke-width="1" opacity="1"/><line transform="translate(0,30)" x2="640" y2="0" stroke="#ddd" stroke-width="1" opacity="1"/><line transform="translate(0,0)" x2="640" y2="0" stroke="#ddd" stroke-width="1" opacity="1"/></g></g><path class="foreground" aria-hidden="true" d="" pointer-events="none" display="none"/></g></g><g class="mark-group role-scope child_pathgroup" role="graphics-object" aria-roledescription="group mark container"><g transform="translate(0,0)"><path class="background" aria-hidden="true" d="M0,0h640v300h-640Z"/><g><g class="mark-line role-mark child_marks" role="graphics-object" aria-roledescription="line mark container"><path aria-label="attendee_type: In-person; start_time: 07:00; avg_rating: 2.66666666667" role="graphics-symbol" aria-roledescription="line mark" d="M30,140L30,140L30,140L50,17.076923076923055L50,17.076923076923055L50,17.076923076923055L50,17.076923076923055L50,17.076923076923055L50,17.076923076923055L50,17.076923076923055L50,17.076923076923055L50,17.076923076923055L50,17.076923076923055L50,17.076923076923055L50,17.076923076923055L50,17.076923076923055L50,17.076923076923055L50,17.076923076923055L50,17.076923076923055L50,17.076923076923055L50,17.076923076923055L50,17.076923076923055L50,17.076923076923055L50,17.076923076923055L50,17.076923076923055L50,17.076923076923055L50,17.076923076923055L50,17.076923076923055L50,17.076923076923055L50,17.076923076923055L50,17.076923076923055L50,17.076923076923055L50,17.076923076923055L50,17.076923076923055L50,17.076923076923055L50,17.076923076923055L50,17.076923076923055L50,17.076923076923055L50,17.076923076923055L50,17.076923076923055L50,17.076923076923055L50,17.076923076923055L50,17.076923076923055L50,17.076923076923055L50,17.076923076923055L50,17.076923076923055L50,17.076923076923055L50,17.076923076923055L50,17.076923076923055L50,17.076923076923055L50,17.076923076923055L50,17.076923076923055L50,17.076923076923055L50,17.076923076923055L50,17.076923076923055L50,17.076923076923055L50,17.076923076923055L50,17.076923076923055L50,17.076923076923055L50,17.076923076923055L50,17.076923076923055L50,17.076923076923055L50,17.076923076923055L50,17.076923076923055L50,17.076923076923055L50,17.076923076923055L50,17.076923076923055L50,17.076923076923055L50,17.076923076923055L50,17.076923076923055L50,17.076923076923055L50,17.076923076923055L50,17.076923076923055L50,17.076923076923055L50,17.076923076923055L50,17.076923076923055L50,17.076923076923055L50,17.076923076923055L50,17.076923076923055L50,17.076923076923055L50,17.076923076923055L50,17.076923076923055L50,17.076923076923055L50,17.076923076923055L50,17.076923076923055L50,17.076923076923055L50,17.076923076923055L50,17.076923076923055L50,17.076923076923055L50,17.076923076923055L50,17.076923076923055L50,17.076923076923055L50,17.076923076923055L50,17.076923076923055L50,17.076923076923055L50,17.076923076923055L50,17.076923076923055L50,17.076923076923055L50,17.076923076923055L50,17.076923076923055L50,17.076923076923055L50,17.076923076923055L50,17.076923076923055L50,17.076923076923055L50,17.076923076923055L50,17.076923076923055L50,17.076923076923055L50,17.076923076923055L50,17.076923076923055L50,17.076923076923055L50,17.076923076923055L50,17.076923076923055L50,17.076923076923055L50,17.076923076923055L50,17.076923076923055L50,17.076923076923055L50,17.076923076923055L50,17.076923076923055L50,17.076923076923055L50,17.076923076923055L50,17.076923076923055L70,17.076923076923055L70,17.076923076923055L70,17.076923076923055L90,24.230769230769244L90,24.230769230769244L90,24.230769230769244L90,24.230769230769244L90,24.230769230769244L90,24.230769230769244L90,24.230769230769244L90,24.230769230769244L90,24.230769230769244L110,29.374999999999996L110,29.374999999999996L110,29.374999999999996L110,29.374999999999996L110,29.374999999999996L110,29.374999999999996L110,29.374999999999996L110,29.374999999999996L110,29.374999999999996L110,29.374999999999996L110,29.374999999999996L110,29.374999999999996L110,29.374999999999996L110,29.374999999999996L110,29.374999999999996L110,29.374999999999996L110,29.374999999999996L110,29.374999999999996L110,29.374999999999996L110,29.374999999999996L110,29.374999999999996L110,29.374999999999996L110,29.374999999999996L110,29.374999999999996L110,29.374999999999996L110,29.374999999999996L110,29.374999999999996L110,29.374999999999996L110,29.374999999999996L110,29.374999999999996L110,29.374999999999996L110,29.374999999999996L110,29.374999999999996L110,29.374999999999996L110,29.374999999999996L110,29.374999999999996L110,29.374999999999996L110,29.374999999999996L110,29.374999999999996L110,29.374999999999996L110,29.374999999999996L110,29.374999999999996L110,29.374999999999996L110,29.374999999999996L110,29.374999999999996L110,29.374999999999996L110,29.374999999999996L110,29.374999999999996L110,29.374999999999996L110,29.374999999999996L110,29.374999999999996L110,29.374999999999996L110,29.374999999999996L110,29.374999999999996L110,29.374999999999996L110,29.374999999999996L110,29.374999999999996L110,29.374999999999996L110,29.374999999999996L110,29.374999999999996L110,29.374999999999996L110,29.374999999999996L110,29.374999999999996L110,29.374999999999996L110,29.374999999999996L110,29.374999999999996L110,29.374999999999996L110,29.374999999999996L110,29.374999999999996L110,29.374999999999996L110,29.374999999999996L110,29.374999999999996L110,29.374999999999996L110,29.374999999999996L110,29.374999999999996L110,29.374999999999996L110,29.374999999999996L110,29.374999999999996L130,32.41379310344826L130,32.41379310344826L130,32.41379310344826L150,33.24324324324327L150,33.24324324324327L150,33.24324324324327L150,33.24324324324327L150,33.24324324324327L150,33.24324324324327L170,31.343283582089576L170,31.343283582089576L170,31.343283582089576L170,31.343283582089576L170,31.343283582089576L170,31.343283582089576L170,31.343283582089576L170,31.343283582089576L170,31.343283582089576L170,31.343283582089576L170,31.343283582089576L170,31.343283582089576L170,31.343283582089576L170,31.343283582089576L170,31.343283582089576L170,31.343283582089576L170,31.343283582089576L170,31.343283582089576L170,31.343283582089576L170,31.343283582089576L170,31.343283582089576L170,31.343283582089576L170,31.343283582089576L170,31.343283582089576L170,31.343283582089576L170,31.343283582089576L170,31.343283582089576L170,31.343283582089576L170,31.343283582089576L170,31.343283582089576L170,31.343283582089576L170,31.343283582089576L170,31.343283582089576L170,31.343283582089576L170,31.343283582089576L170,31.343283582089576L170,31.343283582089576L170,31.343283582089576L170,31.343283582089576L170,31.343283582089576L170,31.343283582089576L170,31.343283582089576L170,31.343283582089576L170,31.343283582089576L170,31.343283582089576L170,31.343283582089576L170,31.343283582089576L170,31.343283582089576L170,31.343283582089576L170,31.343283582089576L170,31.343283582089576L170,31.343283582089576L170,31.343283582089576L170,31.343283582089576L170,31.343283582089576L170,31.343283582089576L170,31.343283582089576L170,31.343283582089576L170,31.343283582089576L170,31.343283582089576L170,31.343283582089576L190,35.789473684210535L190,35.789473684210535L190,35.789473684210535L210,34.5L210,34.5L210,34.5L210,34.5L210,34.5L210,34.5L210,34.5L210,34.5L210,34.5L210,34.5L210,34.5L210,34.5L210,34.5L210,34.5L210,34.5L210,34.5L210,34.5L210,34.5L210,34.5L210,34.5L210,34.5L210,34.5L210,34.5L210,34.5L210,34.5L210,34.5L210,34.5L210,34.5L210,34.5L210,34.5L210,34.5L210,34.5L210,34.5L210,34.5L210,34.5L210,34.5L210,34.5L210,34.5L210,34.5L210,34.5L210,34.5L210,34.5L210,34.5L210,34.5L210,34.5L210,34.5L210,34.5L210,34.5L210,34.5L210,34.5L210,34.5L210,34.5L210,34.5L210,34.5L210,34.5L210,34.5L210,34.5L210,34.5L210,34.5L210,34.5L210,34.5L210,34.5L210,34.5L210,34.5L210,34.5L210,34.5L210,34.5L210,34.5L210,34.5L210,34.5L210,34.5L210,34.5L210,34.5L210,34.5L210,34.5L210,34.5L210,34.5L210,34.5L210,34.5L210,34.5L210,34.5L210,34.5L210,34.5L210,34.5L210,34.5L210,34.5L210,34.5L210,34.5L210,34.5L210,34.5L210,34.5L210,34.5L210,34.5L210,34.5L210,34.5L210,34.5L210,34.5L210,34.5L210,34.5L210,34.5L210,34.5L210,34.5L230,34.5L230,34.5L230,34.5L230,34.5L230,34.5L230,34.5L230,34.5L230,34.5L230,34.5L250,36.61016949152545L250,36.61016949152545L250,36.61016949152545L250,36.61016949152545L250,36.61016949152545L250,36.61016949152545L290,42.85714285714287L310,16.05095541401277L310,16.05095541401277L310,16.05095541401277L310,16.05095541401277L310,16.05095541401277L310,16.05095541401277L310,16.05095541401277L310,16.05095541401277L310,16.05095541401277L310,16.05095541401277L310,16.05095541401277L310,16.05095541401277L310,16.05095541401277L310,16.05095541401277L310,16.05095541401277L310,16.05095541401277L310,16.05095541401277L310,16.05095541401277L310,16.05095541401277L310,16.05095541401277L310,16.05095541401277L310,16.05095541401277L310,16.05095541401277L310,16.05095541401277L310,16.05095541401277L310,16.05095541401277L310,16.05095541401277L310,16.05095541401277L310,16.05095541401277L310,16.05095541401277L310,16.05095541401277L310,16.05095541401277L310,16.05095541401277L310,16.05095541401277L310,16.05095541401277L310,16.05095541401277L310,16.05095541401277L310,16.05095541401277L310,16.05095541401277L310,16.05095541401277L310,16.05095541401277L310,16.05095541401277L310,16.05095541401277L310,16.05095541401277L310,16.05095541401277L310,16.05095541401277L310,16.05095541401277L310,16.05095541401277L310,16.05095541401277L310,16.05095541401277L310,16.05095541401277L310,16.05095541401277L310,16.05095541401277L310,16.05095541401277L310,16.05095541401277L310,16.05095541401277L310,16.05095541401277L310,16.05095541401277L310,16.05095541401277L310,16.05095541401277L310,16.05095541401277L310,16.05095541401277L310,16.05095541401277L310,16.05095541401277L310,16.05095541401277L310,16.05095541401277L310,16.05095541401277L310,16.05095541401277L310,16.05095541401277L310,16.05095541401277L310,16.05095541401277L310,16.05095541401277L310,16.05095541401277L310,16.05095541401277L310,16.05095541401277L310,16.05095541401277L310,16.05095541401277L310,16.05095541401277L310,16.05095541401277L310,16.05095541401277L310,16.05095541401277L310,16.05095541401277L310,16.05095541401277L310,16.05095541401277L310,16.05095541401277L310,16.05095541401277L310,16.05095541401277L310,16.05095541401277L310,16.05095541401277L310,16.05095541401277L310,16.05095541401277L310,16.05095541401277L310,16.05095541401277L310,16.05095541401277L310,16.05095541401277L310,16.05095541401277L310,16.05095541401277L310,16.05095541401277L310,16.05095541401277L310,16.05095541401277L310,16.05095541401277L310,16.05095541401277L310,16.05095541401277L310,16.05095541401277L310,16.05095541401277L310,16.05095541401277L310,16.05095541401277L310,16.05095541401277L310,16.05095541401277L310,16.05095541401277L310,16.05095541401277L310,16.05095541401277L310,16.05095541401277L310,16.05095541401277L310,16.05095541401277L310,16.05095541401277L310,16.05095541401277L310,16.05095541401277L310,16.05095541401277L310,16.05095541401277L310,16.05095541401277L310,16.05095541401277L310,16.05095541401277L310,16.05095541401277L310,16.05095541401277L310,16.05095541401277L310,16.05095541401277L310,16.05095541401277L310,16.05095541401277L310,16.05095541401277L310,16.05095541401277L310,16.05095541401277L310,16.05095541401277L310,16.05095541401277L310,16.05095541401277L310,16.05095541401277L310,16.05095541401277L310,16.05095541401277L310,16.05095541401277L310,16.05095541401277L310,16.05095541401277L310,16.05095541401277L310,16.05095541401277L310,16.05095541401277L310,16.05095541401277L310,16.05095541401277L310,16.05095541401277L310,16.05095541401277L310,16.05095541401277L310,16.05095541401277L310,16.05095541401277L310,16.05095541401277L310,16.05095541401277L310,16.05095541401277L310,16.05095541401277L310,16.05095541401277L310,16.05095541401277L330,20.250000000000036L330,20.250000000000036L330,20.250000000000036L330,20.250000000000036L330,20.250000000000036L330,20.250000000000036L330,20.250000000000036L330,20.250000000000036L330,20.250000000000036L330,20.250000000000036L330,20.250000000000036L330,20.250000000000036L330,20.250000000000036L330,20.250000000000036L330,20.250000000000036L330,20.250000000000036L330,20.250000000000036L330,20.250000000000036L330,20.250000000000036L330,20.250000000000036L330,20.250000000000036L330,20.250000000000036L330,20.250000000000036L330,20.250000000000036L330,20.250000000000036L330,20.250000000000036L330,20.250000000000036L330,20.250000000000036L330,20.250000000000036L330,20.250000000000036L330,20.250000000000036L330,20.250000000000036L330,20.250000000000036L330,20.250000000000036L330,20.250000000000036L330,20.250000000000036L330,20.250000000000036L330,20.250000000000036L330,20.250000000000036L330,20.250000000000036L330,20.250000000000036L330,20.250000000000036L330,20.250000000000036L330,20.250000000000036L330,20.250000000000036L330,20.250000000000036L330,20.250000000000036L330,20.250000000000036L330,20.250000000000036L330,20.250000000000036L330,20.250000000000036L330,20.250000000000036L330,20.250000000000036L330,20.250000000000036L330,20.250000000000036L330,20.250000000000036L330,20.250000000000036L330,20.250000000000036L330,20.250000000000036L330,20.250000000000036L330,20.250000000000036L330,20.250000000000036L330,20.250000000000036L330,20.250000000000036L330,20.250000000000036L330,20.250000000000036L330,20.250000000000036L330,20.250000000000036L330,20.250000000000036L330,20.250000000000036L330,20.250000000000036L330,20.250000000000036L330,20.250000000000036L330,20.250000000000036L330,20.250000000000036L330,20.250000000000036L330,20.250000000000036L330,20.250000000000036L330,20.250000000000036L330,20.250000000000036L410,35.04950495049501L410,35.04950495049501L410,35.04950495049501L410,35.04950495049501L410,35.04950495049501L410,35.04950495049501L410,35.04950495049501L410,35.04950495049501L410,35.04950495049501L410,35.04950495049501L410,35.04950495049501L410,35.04950495049501L410,35.04950495049501L410,35.04950495049501L410,35.04950495049501L410,35.04950495049501L410,35.04950495049501L410,35.04950495049501L410,35.04950495049501L410,35.04950495049501L410,35.04950495049501L410,35.04950495049501L410,35.04950495049501L410,35.04950495049501L410,35.04950495049501L410,35.04950495049501L410,35.04950495049501L410,35.04950495049501L410,35.04950495049501L410,35.04950495049501L410,35.04950495049501L410,35.04950495049501L410,35.04950495049501L410,35.04950495049501L410,35.04950495049501L410,35.04950495049501L410,35.04950495049501L410,35.04950495049501L410,35.04950495049501L410,35.04950495049501L410,35.04950495049501L410,35.04950495049501L410,35.04950495049501L410,35.04950495049501L410,35.04950495049501L410,35.04950495049501L410,35.04950495049501L410,35.04950495049501L410,35.04950495049501L410,35.04950495049501L410,35.04950495049501L410,35.04950495049501L410,35.04950495049501L410,35.04950495049501L410,35.04950495049501L410,35.04950495049501L410,35.04950495049501L410,35.04950495049501L410,35.04950495049501L410,35.04950495049501L410,35.04950495049501L410,35.04950495049501L410,35.04950495049501L410,35.04950495049501L410,35.04950495049501L410,35.04950495049501L410,35.04950495049501L410,35.04950495049501L410,35.04950495049501L410,35.04950495049501L410,35.04950495049501L410,35.04950495049501L410,35.04950495049501L410,35.04950495049501L410,35.04950495049501L410,35.04950495049501L410,35.04950495049501L410,35.04950495049501L410,35.04950495049501L410,35.04950495049501L410,35.04950495049501L410,35.04950495049501L410,35.04950495049501L410,35.04950495049501L410,35.04950495049501L410,35.04950495049501L410,35.04950495049501L410,35.04950495049501L410,35.04950495049501L410,35.04950495049501L410,35.04950495049501L410,35.04950495049501L410,35.04950495049501L410,35.04950495049501L410,35.04950495049501L410,35.04950495049501L410,35.04950495049501L410,35.04950495049501L410,35.04950495049501L410,35.04950495049501L410,35.04950495049501L490,22.758620689655185L490,22.758620689655185L490,22.758620689655185L490,22.758620689655185L490,22.758620689655185L490,22.758620689655185L490,22.758620689655185L490,22.758620689655185L490,22.758620689655185L490,22.758620689655185L490,22.758620689655185L490,22.758620689655185L490,22.758620689655185L490,22.758620689655185L490,22.758620689655185L490,22.758620689655185L490,22.758620689655185L490,22.758620689655185L490,22.758620689655185L490,22.758620689655185L490,22.758620689655185L490,22.758620689655185L490,22.758620689655185L490,22.758620689655185L490,22.758620689655185L490,22.758620689655185L490,22.758620689655185L490,22.758620689655185L490,22.758620689655185L570,34.28571428571426L570,34.28571428571426L570,34.28571428571426L570,34.28571428571426L570,34.28571428571426L570,34.28571428571426L570,34.28571428571426" stroke="#4c78a8" stroke-width="2" opacity="0.8"/></g></g><path class="foreground" aria-hidden="true" d="" display="none"/></g><g transform="translate(0,0)"><path class="background" aria-hidden="true" d="M0,0h640v300h-640Z"/><g><g class="mark-line role-mark child_marks" role="graphics-object" aria-roledescription="line mark container"><path aria-label="attendee_type: Virtual; start_time: 08:00; avg_rating: 4.14285714286" role="graphics-symbol" aria-roledescription="line mark" d="M50,51.42857142857141L50,51.42857142857141L50,51.42857142857141L50,51.42857142857141L50,51.42857142857141L50,51.42857142857141L50,51.42857142857141L50,51.42857142857141L50,51.42857142857141L50,51.42857142857141L50,51.42857142857141L50,51.42857142857141L50,51.42857142857141L50,51.42857142857141L50,51.42857142857141L50,51.42857142857141L50,51.42857142857141L50,51.42857142857141L50,51.42857142857141L50,51.42857142857141L50,51.42857142857141L110,27.27272727272725L110,27.27272727272725L110,27.27272727272725L110,27.27272727272725L110,27.27272727272725L110,27.27272727272725L110,27.27272727272725L110,27.27272727272725L110,27.27272727272725L110,27.27272727272725L110,27.27272727272725L110,27.27272727272725L110,27.27272727272725L110,27.27272727272725L110,27.27272727272725L110,27.27272727272725L110,27.27272727272725L110,27.27272727272725L110,27.27272727272725L110,27.27272727272725L110,27.27272727272725L110,27.27272727272725L170,40.00000000000002L170,40.00000000000002L170,40.00000000000002L170,40.00000000000002L170,40.00000000000002L170,40.00000000000002L170,40.00000000000002L170,40.00000000000002L170,40.00000000000002L170,40.00000000000002L170,40.00000000000002L170,40.00000000000002L210,26.66666666666667L210,26.66666666666667L210,26.66666666666667L210,26.66666666666667L210,26.66666666666667L210,26.66666666666667L210,26.66666666666667L210,26.66666666666667L210,26.66666666666667L210,26.66666666666667L210,26.66666666666667L210,26.66666666666667L210,26.66666666666667L210,26.66666666666667L210,26.66666666666667L210,26.66666666666667L210,26.66666666666667L210,26.66666666666667L310,65L310,65L310,65L310,65L310,65L310,65L310,65L310,65L310,65L310,65L310,65L310,65L310,65L310,65L310,65L310,65L310,65L310,65L310,65L310,65L310,65L310,65L310,65L310,65L330,10.588235294117677L330,10.588235294117677L330,10.588235294117677L330,10.588235294117677L330,10.588235294117677L330,10.588235294117677L330,10.588235294117677L330,10.588235294117677L330,10.588235294117677L330,10.588235294117677L330,10.588235294117677L330,10.588235294117677L330,10.588235294117677L330,10.588235294117677L330,10.588235294117677L330,10.588235294117677L330,10.588235294117677L410,6.666666666666643L410,6.666666666666643L410,6.666666666666643L410,6.666666666666643L410,6.666666666666643L410,6.666666666666643L410,6.666666666666643L410,6.666666666666643L410,6.666666666666643L490,19.999999999999996L490,19.999999999999996L490,19.999999999999996L490,19.999999999999996L490,19.999999999999996L490,19.999999999999996L490,19.999999999999996L490,19.999999999999996L490,19.999999999999996L490,19.999999999999996L490,19.999999999999996L490,19.999999999999996L490,19.999999999999996L490,19.999999999999996L490,19.999999999999996" stroke="#f58518" stroke-width="2" opacity="0.8"/></g></g><path class="foreground" aria-hidden="true" d="" display="none"/></g></g></g><path class="foreground" aria-hidden="true" d="" display="none"/></g></g><g class="mark-group role-legend" role="graphics-symbol" aria-roledescription="legend" aria-label="Symbol legend titled 'attendee_type' for stroke color with 2 values: In-person, Virtual"><g transform="translate(1321,0)"><path class="background" aria-hidden="true" d="M0,0h74v40h-74Z" pointer-events="none"/><g><g class="mark-group role-legend-entry"><g transform="translate(0,16)"><path class="background" aria-hidden="true" d="M0,0h0v0h0Z" pointer-events="none"/><g><g class="mark-group role-scope" role="graphics-object" aria-roledescription="group mark container"><g transform="translate(0,0)"><path class="background" aria-hidden="true" d="M0,0h58.24609375v11h-58.24609375Z" pointer-events="none" opacity="1"/><g><g class="mark-symbol role-legend-symbol" pointer-events="none"><path transform="translate(6,6)" d="M-5,0L5,0" stroke="#4c78a8" stroke-width="1.5" opacity="0.8"/></g><g class="mark-text role-legend-label" pointer-events="none"><text text-anchor="start" transform="translate(16,9)" font-family="sans-serif" font-size="10px" fill="#000" opacity="1">In-person</text></g></g><path class="foreground" aria-hidden="true" d="" pointer-events="none" display="none"/></g><g transform="translate(0,13)"><path class="background" aria-hidden="true" d="M0,0h58.24609375v11h-58.24609375Z" pointer-events="none" opacity="1"/><g><g class="mark-symbol role-legend-symbol" pointer-events="none"><path transform="translate(6,6)" d="M-5,0L5,0" stroke="#f58518" stroke-width="1.5" opacity="0.8"/></g><g class="mark-text role-legend-label" pointer-events="none"><text text-anchor="start" transform="translate(16,9)" font-family="sans-serif" font-size="10px" fill="#000" opacity="1">Virtual</text></g></g><path class="foreground" aria-hidden="true" d="" pointer-events="none" display="none"/></g></g></g><path class="foreground" aria-hidden="true" d="" pointer-events="none" display="none"/></g></g><g class="mark-text role-legend-title" pointer-events="none"><text text-anchor="start" transform="translate(0,9)" font-family="sans-serif" font-size="11px" font-weight="bold" fill="#000" opacity="1">attendee_type</text></g></g><path class="foreground" aria-hidden="true" d="" pointer-events="none" display="none"/></g></g></g><path class="foreground" aria-hidden="true" d="" display="none"/></g></g></g></svg>