<svg xmlns="http://www.w3.org/2000/svg" xmlns:xlink="http://www.w3.org/1999/xlink" version="1.1" class="marks" width="1442" height="413" viewBox="0 0 1442 413"><rect width="1442" height="413" fill="white"/><g fill="none" stroke-miterlimit="10" transform="translate(42,59)"><g class="mark-group role-frame root" role="graphics-object" aria-roledescription="group mark container"><g transform="translate(0,0)"><path class="background" aria-hidden="true" d="M0,0h0v0h0Z"/><g><g class="mark-group role-column-title column-title" role="graphics-object" aria-roledescription="group mark container"><g transform="translate(651,-33)"><path class="background" aria-hidden="true" d="M0,0h0v0h0Z"/><g><g class="mark-group role-title"><g transform="translate(0,-21)"><path class="background" aria-hidden="true" d="M0,0h0v0h0Z" pointer-events="none"/><g><g class="mark-text role-title-text" role="graphics-symbol" aria-roledescription="title" aria-label="Title text 'date'" pointer-events="none"><text text-anchor="middle" transform="translate(0,9)" font-family="sans-serif" font-size="11px" font-weight="bold" fill="#000" opacity="1">date</text></g></g><path class="foreground" aria-hidden="true" d="" pointer-events="none" display="none"/></g></g></g><path class="foreground" aria-hidden="true" d="" display="none"/></g></g><g class="mark-group role-row-header row_header" role="graphics-object" aria-roledescription="group mark container"><g transform="translate(-1,0)"><path class="background" aria-hidden="true" d="M0,0h0v300h0Z"/><g><g class="mark-group role-axis" role="graphics-symbol" aria-roledescription="axis" aria-label="Y-axis titled 'avg_rating' for a linear scale with values from 2.4 to 5.0"><g transform="translate(0.5,0.5)"><path class="background" aria-hidden="true" d="M0,0h0v0h0Z" pointer-events="none"/><g><g class="mark-rule role-axis-tick" pointer-events="none"><line transform="translate(0,288)" x2="-5" y2="0" stroke="#888" stroke-width="1" opacity="1"/><line transform="translate(0,231)" x2="-5" y2="0" stroke="#888" stroke-width="1" opacity="1"/><line transform="translate(0,173)" x2="-5" y2="0" stroke="#888" stroke-width="1" opacity="1"/><line transform="translate(0,115)" x2="-5" y2="0" stroke="#888" stroke-width="1" opacity="1"/><line transform="translate(0,58)" x2="-5" y2="0" stroke="#888" stroke-width="1" opacity="1"/><line transform="translate(0,0)" x2="-5" y2="0" stroke="#888" stroke-width="1" opacity="1"/></g><g class="mark-text role-axis-label" pointer-events="none"><text text-anchor="end" transform="translate(-7,291.46153846153845)" font-family="sans-serif" font-size="10px" fill="#000" opacity="1">2.5</text><text text-anchor="end" transform="translate(-7,233.76923076923075)" font-family="sans-serif" font-size="10px" fill="#000" opacity="1">3.0</text><text text-anchor="end" transform="translate(-7,176.07692307692307)" font-family="sans-serif" font-size="10px" fill="#000" opacity="1">3.5</text><text text-anchor="end" transform="translate(-7,118.38461538461537)" font-family="sans-serif" font-size="10px" fill="#000" opacity="1">4.0</text><text text-anchor="end" transform="translate(-7,60.692307692307686)" font-family="sans-serif" font-size="10px" fill="#000" opacity="1">4.5</text><text text-anchor="end" transform="translate(-7,3)" font-family="sans-serif" font-size="10px" fill="#000" opacity="1">5.0</text></g><g class="mark-rule role-axis-domain" pointer-events="none"><line transform="translate(0,300)" x2="0" y2="-300" stroke="#888" stroke-width="1" opacity="1"/></g><g class="mark-text role-axis-title" pointer-events="none"><text text-anchor="middle" transform="translate(-24.9013671875,150) rotate(-90) translate(0,-2)" font-family="sans-serif" font-size="11px" font-weight="bold" fill="#000" opacity="1">avg_rating</text></g></g><path class="foreground" aria-hidden="true" d="" pointer-events="none" display="none"/></g></g></g><path class="foreground" aria-hidden="true" d="" display="none"/></g></g><g class="mark-group role-column-header column_header" role="graphics-object" aria-roledescription="group mark container"><g transform="translate(0,-3)"><path class="background" aria-hidden="true" d="M0,0h640v0h-640Z"/><g><g class="mark-group role-title"><g transform="translate(320,-20)"><path class="background" aria-hidden="true" d="M0,0h0v0h0Z" pointer-events="none"/><g><g class="mark-text role-title-text" role="graphics-symbol" aria-roledescription="title" aria-label="Title text '04 Oct 22'" pointer-events="none"><text text-anchor="middle" transform="translate(0,8)" font-family="sans-serif" font-size="10px" fill="#000" opacity="1">04 Oct 22</text></g></g><path class="foreground" aria-hidden="true" d="" pointer-events="none" display="none"/></g></g></g><path class="foreground" aria-hidden="true" d="" display="none"/></g><g transform="translate(662,-3)"><path class="background" aria-hidden="true" d="M0,0h640v0h-640Z"/><g><g class="mark-group role-title"><g transform="translate(320,-20)"><path class="background" aria-hidden="true" d="M0,0h0v0h0Z" pointer-events="none"/><g><g class="mark-text role-title-text" role="graphics-symbol" aria-roledescription="title" aria-label="Title text '05 Oct 22'" pointer-events="none"><text text-anchor="middle" transform="translate(0,8)" font-family="sans-serif" font-size="10px" fill="#000" opacity="1">05 Oct 22</text></g></g><path class="foreground" aria-hidden="true" d="" pointer-events="none" display="none"/></g></g></g><path class="foreground" aria-hidden="true" d="" display="none"/></g></g><g class="mark-group role-column-footer column_footer" role="graphics-object" aria-roledescription="group mark container"><g transform="translate(0,301)"><path class="background" aria-hidden="true" d="M0,0h640v0h-640Z"/><g><g class="mark-group role-axis" role="graphics-symbol" aria-roledescription="axis" aria-label="X-axis titled 'start_time' for a discrete scale with 32 values: 06:30, 07:00, 08:00, 08:15, 08:30, ending with 17:45"><g transform="translate(0.5,0.5)"><path class="background" aria-hidden="true" d="M0,0h0v0h0Z" pointer-events="none"/><g><g class="mark-rule role-axis-tick" pointer-events="none"><line transform="translate(10,0)" x2="0" y2="5" stroke="#888" stroke-width="1" opacity="1"/><line transform="translate(30,0)" x2="0" y2="5" stroke="#888" stroke-width="1" opacity="1"/><line transform="translate(50,0)" x2="0" y2="5" stroke="#888" stroke-width="1" opacity="1"/><line transform="translate(70,0)" x2="0" y2="5" stroke="#888" stroke-width="1" opacity="1"/><line transform="translate(90,0)" x2="0" y2="5" stroke="#888" stroke-width="1" opacity="1"/><line transform="translate(110,0)" x2="0" y2="5" stroke="#888" stroke-width="1" opacity="1"/><line transform="translate(130,0)" x2="0" y2="5" stroke="#888" stroke-width="1" opacity="1"/><line transform="translate(150,0)" x2="0" y2="5" stroke="#888" stroke-width="1" opacity="1"/><line transform="translate(170,0)" x2="0" y2="5" stroke="#888" stroke-width="1" opacity="1"/><line transform="translate(190,0)" x2="0" y2="5" stroke="#888" stroke-width="1" opacity="1"/><line transform="translate(210,0)" x2="0" y2="5" stroke="#888" stroke-width="1" opacity="1"/><line transform="translate(230,0)" x2="0" y2="5" stroke="#888" stroke-width="1" opacity="1"/><line transform="translate(250,0)" x2="0" y2="5" stroke="#888" stroke-width="1" opacity="1"/><line transform="translate(270,0)" x2="0" y2="5" stroke="#888" stroke-width="1" opacity="1"/><line transform="translate(290,0)" x2="0" y2="5" stroke="#888" stroke-width="1" opacity="1"/><line transform="translate(310,0)" x2="0" y2="5" stroke="#888" stroke-width="1" opacity="1"/><line transform="translate(330,0)" x2="0" y2="5" stroke="#888" stroke-width="1" opacity="1"/><line transform="translate(350,0)" x2="0" y2="5" stroke="#888" stroke-width="1" opacity="1"/><line transform="translate(370,0)" x2="0" y2="5" stroke="#888" stroke-width="1" opacity="1"/><line transform="translate(390,0)" x2="0" y2="5" stroke="#888" stroke-width="1" opacity="1"/><line transform="translate(410,0)" x2="0" y2="5" stroke="#888" stroke-width="1" opacity="1"/><line transform="translate(430,0)" x2="0" y2="5" stroke="#888" stroke-width="1" opacity="1"/><line transform="translate(450,0)" x2="0" y2="5" stroke="#888" stroke-width="1" opacity="1"/><line transform="translate(470,0)" x2="0" y2="5" stroke="#888" stroke-width="1" opacity="1"/><line transform="translate(490,0)" x2="0" y2="5" stroke="#888" stroke-width="1" opacity="1"/><line transform="translate(510,0)" x2="0" y2="5" stroke="#888" stroke-width="1" opacity="1"/><line transform="translate(530,0)" x2="0" y2="5" stroke="#888" stroke-width="1" opacity="1"/><line transform="translate(550,0)" x2="0" y2="5" stroke="#888" stroke-width="1" opacity="1"/><line transform="translate(570,0)" x2="0" y2="5" stroke="#888" stroke-width="1" opacity="1"/><line transform="translate(590,0)" x2="0" y2="5" stroke="#888" stroke-width="1" opacity="1"/><line transform="translate(610,0)" x2="0" y2="5" stroke="#888" stroke-width="1" opacity="1"/><line transform="translate(630,0)" x2="0" y2="5" stroke="#888" stroke-width="1" opacity="1"/></g><g class="mark-text role-axis-label" pointer-events="none"><text text-anchor="end" transform="translate(10,7) rotate(270) translate(0,3)" font-family="sans-serif" font-size="10px" fill="#000" opacity="1">06:30</text><text text-anchor="end" transform="translate(30,7) rotate(270) translate(0,3)" font-family="sans-serif" font-size="10px" fill="#000" opacity="1">07:00</text><text text-anchor="end" transform="translate(50,7) rotate(270) translate(0,3)" font-family="sans-serif" font-size="10px" fill="#000" opacity="1">08:00</text><text text-anchor="end" transform="translate(70,7) rotate(270) translate(0,3)" font-family="sans-serif" font-size="10px" fill="#000" opacity="1">08:15</text><text text-anchor="end" transform="translate(90,7) rotate(270) translate(0,3)" font-family="sans-serif" font-size="10px" fill="#000" opacity="1">08:30</text><text text-anchor="end" transform="translate(110,7) rotate(270) translate(0,3)" font-family="sans-serif" font-size="10px" fill="#000" opacity="1">09:00</text><text text-anchor="end" transform="translate(130,7) rotate(270) translate(0,3)" font-family="sans-serif" font-size="10px" fill="#000" opacity="1">09:15</text><text text-anchor="end" transform="translate(150,7) rotate(270) translate(0,3)" font-family="sans-serif" font-size="10px" fill="#000" opacity="1">09:30</text><text text-anchor="end" transform="translate(170,7) rotate(270) translate(0,3)" font-family="sans-serif" font-size="10px" fill="#000" opacity="1">10:00</text><text text-anchor="end" transform="translate(190,7) rotate(270) translate(0,3)" font-family="sans-serif" font-size="10px" fill="#000" opacity="1">11:00</text><text text-anchor="end" transform="translate(210,7) rotate(270) translate(0,3)" font-family="sans-serif" font-size="10px" fill="#000" opacity="1">11:15</text><text text-anchor="end" transform="translate(230,7) rotate(270) translate(0,3)" font-family="sans-serif" font-size="10px" fill="#000" opacity="1">11:30</text><text text-anchor="end" transform="translate(250,7) rotate(270) translate(0,3)" font-family="sans-serif" font-size="10px" fill="#000" opacity="1">11:45</text><text text-anchor="end" transform="translate(270,7) rotate(270) translate(0,3)" font-family="sans-serif" font-size="10px" fill="#000" opacity="1">12:00</text><text text-anchor="end" transform="translate(290,7) rotate(270) translate(0,3)" font-family="sans-serif" font-size="10px" fill="#000" opacity="1">12:15</text><text text-anchor="end" transform="translate(310,7) rotate(270) translate(0,3)" font-family="sans-serif" font-size="10px" fill="#000" opacity="1">13:00</text><text text-anchor="end" transform="translate(330,7) rotate(270) translate(0,3)" font-family="sans-serif" font-size="10px" fill="#000" opacity="1">14:00</text><text text-anchor="end" transform="translate(350,7) rotate(270) translate(0,3)" font-family="sans-serif" font-size="10px" fill="#000" opacity="1">14:15</text><text text-anchor="end" transform="translate(370,7) rotate(270) translate(0,3)" font-family="sans-serif" font-size="10px" fill="#000" opacity="1">14:30</text><text text-anchor="end" transform="translate(390,7) rotate(270) translate(0,3)" font-family="sans-serif" font-size="10px" fill="#000" opacity="1">14:45</text><text text-anchor="end" transform="translate(410,7) rotate(270) translate(0,3)" font-family="sans-serif" font-size="10px" fill="#000" opacity="1">15:00</text><text text-anchor="end" transform="translate(430,7) rotate(270) translate(0,3)" font-family="sans-serif" font-size="10px" fill="#000" opacity="1">15:15</text><text text-anchor="end" transform="translate(450,7) rotate(270) translate(0,3)" font-family="sans-serif" font-size="10px" fill="#000" opacity="1">15:30</text><text text-anchor="end" transform="translate(470,7) rotate(270) translate(0,3)" font-family="sans-serif" font-size="10px" fill="#000" opacity="1">15:45</text><text text-anchor="end" transform="translate(490,7) rotate(270) translate(0,3)" font-family="sans-serif" font-size="10px" fill="#000" opacity="1">16:00</text><text text-anchor="end" transform="translate(510,7) rotate(270) translate(0,3)" font-family="sans-serif" font-size="10px" fill="#000" opacity="1">16:15</text><text text-anchor="end" transform="translate(530,7) rotate(270) translate(0,3)" font-family="sans-serif" font-size="10px" fill="#000" opacity="1">16:30</text><text text-anchor="end" transform="translate(550,7) rotate(270) translate(0,3)" font-family="sans-serif" font-size="10px" fill="#000" opacity="1">16:45</text><text text-anchor="end" transform="translate(570,7) rotate(270) translate(0,3)" font-family="sans-serif" font-size="10px" fill="#000" opacity="1">17:00</text><text text-anchor="end" transform="translate(590,7) rotate(270) translate(0,3)" font-family="sans-serif" font-size="10px" fill="#000" opacity="1">17:15</text><text text-anchor="end" transform="translate(610,7) rotate(270) translate(0,3)" font-family="sans-serif" font-size="10px" fill="#000" opacity="1">17:30</text><text text-anchor="end" transform="translate(630,7) rotate(270) translate(0,3)" font-family="sans-serif" font-size="10px" fill="#000" opacity="1">17:45</text></g><g class="mark-rule role-axis-domain" pointer-events="none"><line transform="translate(0,0)" x2="640" y2="0" stroke="#888" stroke-width="1" opacity="1"/></g><g class="mark-text role-axis-title" pointer-events="none"><text text-anchor="middle" transform="translate(320,45.0244140625)" font-family="sans-serif" font-size="11px" font-weight="bold" fill="#000" opacity="1">start_time</text></g></g><path class="foreground" aria-hidden="true" d="" pointer-events="none" display="none"/></g></g></g><path class="foreground" aria-hidden="true" d="" display="none"/></g><g transform="translate(662,301)"><path class="background" aria-hidden="true" d="M0,0h640v0h-640Z"/><g><g class="mark-group role-axis" role="graphics-symbol" aria-roledescription="axis" aria-label="X-axis titled 'start_time' for a discrete scale with 32 values: 06:30, 07:00, 08:00, 08:15, 08:30, ending with 17:45"><g transform="translate(0.5,0.5)"><path class="background" aria-hidden="true" d="M0,0h0v0h0Z" pointer-events="none"/><g><g class="mark-rule role-axis-tick" pointer-events="none"><line transform="translate(10,0)" x2="0" y2="5" stroke="#888" stroke-width="1" opacity="1"/><line transform="translate(30,0)" x2="0" y2="5" stroke="#888" stroke-width="1" opacity="1"/><line transform="translate(50,0)" x2="0" y2="5" stroke="#888" stroke-width="1" opacity="1"/><line transform="translate(70,0)" x2="0" y2="5" stroke="#888" stroke-width="1" opacity="1"/><line transform="translate(90,0)" x2="0" y2="5" stroke="#888" stroke-width="1" opacity="1"/><line transform="translate(110,0)" x2="0" y2="5" stroke="#888" stroke-width="1" opacity="1"/><line transform="translate(130,0)" x2="0" y2="5" stroke="#888" stroke-width="1" opacity="1"/><line transform="translate(150,0)" x2="0" y2="5" stroke="#888" stroke-width="1" opacity="1"/><line transform="translate(170,0)" x2="0" y2="5" stroke="#888" stroke-width="1" opacity="1"/><line transform="translate(190,0)" x2="0" y2="5" stroke="#888" stroke-width="1" opacity="1"/><line transform="translate(210,0)" x2="0" y2="5" stroke="#888" stroke-width="1" opacity="1"/><line transform="translate(230,0)" x2="0" y2="5" stroke="#888" stroke-width="1" opacity="1"/><line transform="translate(250,0)" x2="0" y2="5" stroke="#888" stroke-width="1" opacity="1"/><line transform="translate(270,0)" x2="0" y2="5" stroke="#888" stroke-width="1" opacity="1"/><line transform="translate(290,0)" x2="0" y2="5" stroke="#888" stroke-width="1" opacity="1"/><line transform="translate(310,0)" x2="0" y2="5" stroke="#888" stroke-width="1" opacity="1"/><line transform="translate(330,0)" x2="0" y2="5" stroke="#888" stroke-width="1" opacity="1"/><line transform="translate(350,0)" x2="0" y2="5" stroke="#888" stroke-width="1" opacity="1"/><line transform="translate(370,0)" x2="0" y2="5" stroke="#888" stroke-width="1" opacity="1"/><line transform="translate(390,0)" x2="0" y2="5" stroke="#888" stroke-width="1" opacity="1"/><line transform="translate(410,0)" x2="0" y2="5" stroke="#888" stroke-width="1" opacity="1"/><line transform="translate(430,0)" x2="0" y2="5" stroke="#888" stroke-width="1" opacity="1"/><line transform="translate(450,0)" x2="0" y2="5" stroke="#888" stroke-width="1" opacity="1"/><line transform="translate(470,0)" x2="0" y2="5" stroke="#888" stroke-width="1" opacity="1"/><line transform="translate(490,0)" x2="0" y2="5" stroke="#888" stroke-width="1" opacity="1"/><line transform="translate(510,0)" x2="0" y2="5" stroke="#888" stroke-width="1" opacity="1"/><line transform="translate(530,0)" x2="0" y2="5" stroke="#888" stroke-width="1" opacity="1"/><line transform="translate(550,0)" x2="0" y2="5" stroke="#888" stroke-width="1" opacity="1"/><line transform="translate(570,0)" x2="0" y2="5" stroke="#888" stroke-width="1" opacity="1"/><line transform="translate(590,0)" x2="0" y2="5" stroke="#888" stroke-width="1" opacity="1"/><line transform="translate(610,0)" x2="0" y2="5" stroke="#888" stroke-width="1" opacity="1"/><line transform="translate(630,0)" x2="0" y2="5" stroke="#888" stroke-width="1" opacity="1"/></g><g class="mark-text role-axis-label" pointer-events="none"><text text-anchor="end" transform="translate(10,7) rotate(270) translate(0,3)" font-family="sans-serif" font-size="10px" fill="#000" opacity="1">06:30</text><text text-anchor="end" transform="translate(30,7) rotate(270) translate(0,3)" font-family="sans-serif" font-size="10px" fill="#000" opacity="1">07:00</text><text text-anchor="end" transform="translate(50,7) rotate(270) translate(0,3)" font-family="sans-serif" font-size="10px" fill="#000" opacity="1">08:00</text><text text-anchor="end" transform="translate(70,7) rotate(270) translate(0,3)" font-family="sans-serif" font-size="10px" fill="#000" opacity="1">08:15</text><text text-anchor="end" transform="translate(90,7) rotate(270) translate(0,3)" font-family="sans-serif" font-size="10px" fill="#000" opacity="1">08:30</text><text text-anchor="end" transform="translate(110,7) rotate(270) translate(0,3)" font-family="sans-serif" font-size="10px" fill="#000" opacity="1">09:00</text><text text-anchor="end" transform="translate(130,7) rotate(270) translate(0,3)" font-family="sans-serif" font-size="10px" fill="#000" opacity="1">09:15</text><text text-anchor="end" transform="translate(150,7) rotate(270) translate(0,3)" font-family="sans-serif" font-size="10px" fill="#000" opacity="1">09:30</text><text text-anchor="end" transform="translate(170,7) rotate(270) translate(0,3)" font-family="sans-serif" font-size="10px" fill="#000" opacity="1">10:00</text><text text-anchor="end" transform="translate(190,7) rotate(270) translate(0,3)" font-family="sans-serif" font-size="10px" fill="#000" opacity="1">11:00</text><text text-anchor="end" transform="translate(210,7) rotate(270) translate(0,3)" font-family="sans-serif" font-size="10px" fill="#000" opacity="1">11:15</text><text text-anchor="end" transform="translate(230,7) rotate(270) translate(0,3)" font-family="sans-serif" font-size="10px" fill="#000" opacity="1">11:30</text><text text-anchor="end" transform="translate(250,7) rotate(270) translate(0,3)" font-family="sans-serif" font-size="10px" fill="#000" opacity="1">11:45</text><text text-anchor="end" transform="translate(270,7) rotate(270) translate(0,3)" font-family="sans-serif" font-size="10px" fill="#000" opacity="1">12:00</text><text text-anchor="end" transform="translate(290,7) rotate(270) translate(0,3)" font-family="sans-serif" font-size="10px" fill="#000" opacity="1">12:15</text><text text-anchor="end" transform="translate(310,7) rotate(270) translate(0,3)" font-family="sans-serif" font-size="10px" fill="#000" opacity="1">13:00</text><text text-anchor="end" transform="translate(330,7) rotate(270) translate(0,3)" font-family="sans-serif" font-size="10px" fill="#000" opacity="1">14:00</text><text text-anchor="end" transform="translate(350,7) rotate(270) translate(0,3)" font-family="sans-serif" font-size="10px" fill="#000" opacity="1">14:15</text><text text-anchor="end" transform="translate(370,7) rotate(270) translate(0,3)" font-family="sans-serif" font-size="10px" fill="#000" opacity="1">14:30</text><text text-anchor="end" transform="translate(390,7) rotate(270) translate(0,3)" font-family="sans-serif" font-size="10px" fill="#000" opacity="1">14:45</text><text text-anchor="end" transform="translate(410,7) rotate(270) translate(0,3)" font-family="sans-serif" font-size="10px" fill="#000" opacity="1">15:00</text><text text-anchor="end" transform="translate(430,7) rotate(270) translate(0,3)" font-family="sans-serif" font-size="10px" fill="#000" opacity="1">15:15</text><text text-anchor="end" transform="translate(450,7) rotate(270) translate(0,3)" font-family="sans-serif" font-size="10px" fill="#000" opacity="1">15:30</text><text text-anchor="end" transform="translate(470,7) rotate(270) translate(0,3)" font-family="sans-serif" font-size="10px" fill="#000" opacity="1">15:45</text><text text-anchor="end" transform="translate(490,7) rotate(270) translate(0,3)" font-family="sans-serif" font-size="10px" fill="#000" opacity="1">16:00</text><text text-anchor="end" transform="translate(510,7) rotate(270) translate(0,3)" font-family="sans-serif" font-size="10px" fill="#000" opacity="1">16:15</text><text text-anchor="end" transform="translate(530,7) rotate(270) translate(0,3)" font-family="sans-serif" font-size="10px" fill="#000" opacity="1">16:30</text><text text-anchor="end" transform="translate(550,7) rotate(270) translate(0,3)" font-family="sans-serif" font-size="10px" fill="#000" opacity="1">16:45</text><text text-anchor="end" transform="translate(570,7) rotate(270) translate(0,3)" font-family="sans-serif" font-size="10px" fill="#000" opacity="1">17:00</text><text text-anchor="end" transform="translate(590,7) rotate(270) translate(0,3)" font-family="sans-serif" font-size="10px" fill="#000" opacity="1">17:15</text><text text-anchor="end" transform="translate(610,7) rotate(270) translate(0,3)" font-family="sans-serif" font-size="10px" fill="#000" opacity="1">17:30</text><text text-anchor="end" transform="translate(630,7) rotate(270) translate(0,3)" font-family="sans-serif" font-size="10px" fill="#000" opacity="1">17:45</text></g><g class="mark-rule role-axis-domain" pointer-events="none"><line transform="translate(0,0)" x2="640" y2="0" stroke="#888" stroke-width="1" opacity="1"/></g><g class="mark-text role-axis-title" pointer-events="none"><text text-anchor="middle" transform="translate(320,45.0244140625)" font-family="sans-serif" font-size="11px" font-weight="bold" fill="#000" opacity="1">start_time</text></g></g><path class="foreground" aria-hidden="true" d="" pointer-events="none" display="none"/></g></g></g><path class="foreground" aria-hidden="true" d="" display="none"/></g></g><g class="mark-group role-scope cell" role="graphics-object" aria-roledescription="group mark container"><g transform="translate(0,0)"><path class="background" aria-hidden="true" d="M0.5,0.5h640v300h-640Z" stroke="#ddd"/><g><g class="mark-group role-axis" aria-hidden="true"><g transform="translate(0.5,0.5)"><path class="background" aria-hidden="true" d="M0,0h0v0h0Z" pointer-events="none"/><g><g class="mark-rule role-axis-grid" pointer-events="none"><line transform="translate(0,288)" x2="640" y2="0" stroke="#ddd" stroke-width="1" opacity="1"/><line transform="translate(0,231)" x2="640" y2="0" stroke="#ddd" stroke-width="1" opacity="1"/><line transform="translate(0,173)" x2="640" y2="0" stroke="#ddd" stroke-width="1" opacity="1"/><line transform="translate(0,115)" x2="640" y2="0" stroke="#ddd" stroke-width="1" opacity="1"/><line transform="translate(0,58)" x2="640" y2="0" stroke="#ddd" stroke-width="1" opacity="1"/><line transform="translate(0,0)" x2="640" y2="0" stroke="#ddd" stroke-width="1" opacity="1"/></g></g><path class="foreground" aria-hidden="true" d="" pointer-events="none" display="none"/></g></g><g class="mark-group role-scope child_pathgroup" role="graphics-object" aria-roledescription="group mark container"><g transform="translate(0,0)"><path class="background" aria-hidden="true" d="M0,0h640v300h-640Z"/><g><g class="mark-line role-mark child_marks" role="graphics-object" aria-roledescription="line mark container"><path aria-label="attendee_type: In-person; start_time: 06:30; avg_rating: 5" role="graphics-symbol" aria-roledescription="line mark" d="M10,0L10,0L50,35.30424799081515L50,35.30424799081515L50,35.30424799081515L50,35.30424799081515L50,35.30424799081515L50,35.30424799081515L50,35.30424799081515L50,35.30424799081515L50,35.30424799081515L50,35.30424799081515L50,35.30424799081515L50,35.30424799081515L50,35.30424799081515L50,35.30424799081515L50,35.30424799081515L50,35.30424799081515L50,35.30424799081515L50,35.30424799081515L50,35.30424799081515L50,35.30424799081515L50,35.30424799081515L50,35.30424799081515L50,35.30424799081515L50,35.30424799081515L50,35.30424799081515L50,35.30424799081515L50,35.30424799081515L50,35.30424799081515L50,35.30424799081515L50,35.30424799081515L50,35.30424799081515L50,35.30424799081515L50,35.30424799081515L50,35.30424799081515L50,35.30424799081515L50,35.30424799081515L50,35.30424799081515L50,35.30424799081515L50,35.30424799081515L50,35.30424799081515L50,35.30424799081515L50,35.30424799081515L50,35.30424799081515L50,35.30424799081515L50,35.30424799081515L50,35.30424799081515L50,35.30424799081515L50,35.30424799081515L50,35.30424799081515L50,35.30424799081515L50,35.30424799081515L50,35.30424799081515L50,35.30424799081515L50,35.30424799081515L50,35.30424799081515L50,35.30424799081515L50,35.30424799081515L50,35.30424799081515L50,35.30424799081515L50,35.30424799081515L50,35.30424799081515L50,35.30424799081515L50,35.30424799081515L50,35.30424799081515L50,35.30424799081515L50,35.30424799081515L50,35.30424799081515L50,35.30424799081515L50,35.30424799081515L50,35.30424799081515L50,35.30424799081515L50,35.30424799081515L50,35.30424799081515L50,35.30424799081515L50,35.30424799081515L50,35.30424799081515L50,35.30424799081515L50,35.30424799081515L50,35.30424799081515L50,35.30424799081515L50,35.30424799081515L50,35.30424799081515L50,35.30424799081515L50,35.30424799081515L50,35.30424799081515L50,35.30424799081515L50,35.30424799081515L50,35.30424799081515L50,35.30424799081515L50,35.30424799081515L50,35.30424799081515L50,35.30424799081515L50,35.30424799081515L50,35.30424799081515L50,35.30424799081515L50,35.30424799081515L50,35.30424799081515L50,35.30424799081515L50,35.30424799081515L50,35.30424799081515L50,35.30424799081515L50,35.30424799081515L50,35.30424799081515L50,35.30424799081515L50,35.30424799081515L50,35.30424799081515L50,35.30424799081515L50,35.30424799081515L50,35.30424799081515L50,35.30424799081515L50,35.30424799081515L50,35.30424799081515L50,35.30424799081515L50,35.30424799081515L50,35.30424799081515L50,35.30424799081515L50,35.30424799081515L50,35.30424799081515L50,35.30424799081515L50,35.30424799081515L50,35.30424799081515L50,35.30424799081515L50,35.30424799081515L50,35.30424799081515L50,35.30424799081515L50,35.30424799081515L50,35.30424799081515L50,35.30424799081515L50,35.30424799081515L50,35.30424799081515L50,35.30424799081515L50,35.30424799081515L50,35.30424799081515L50,35.30424799081515L110,58.74125874125872L110,58.74125874125872L110,58.74125874125872L110,58.74125874125872L110,58.74125874125872L110,58.74125874125872L110,58.74125874125872L110,58.74125874125872L110,58.74125874125872L110,58.74125874125872L110,58.74125874125872L110,58.74125874125872L110,58.74125874125872L110,58.74125874125872L110,58.74125874125872L110,58.74125874125872L110,58.74125874125872L110,58.74125874125872L110,58.74125874125872L110,58.74125874125872L110,58.74125874125872L110,58.74125874125872L110,58.74125874125872L110,58.74125874125872L110,58.74125874125872L110,58.74125874125872L110,58.74125874125872L110,58.74125874125872L110,58.74125874125872L110,58.74125874125872L110,58.74125874125872L110,58.74125874125872L110,58.74125874125872L110,58.74125874125872L110,58.74125874125872L110,58.74125874125872L110,58.74125874125872L110,58.74125874125872L110,58.74125874125872L110,58.74125874125872L110,58.74125874125872L110,58.74125874125872L110,58.74125874125872L110,58.74125874125872L110,58.74125874125872L110,58.74125874125872L110,58.74125874125872L110,58.74125874125872L110,58.74125874125872L110,58.74125874125872L110,58.74125874125872L110,58.74125874125872L110,58.74125874125872L110,58.74125874125872L110,58.74125874125872L110,58.74125874125872L110,58.74125874125872L110,58.74125874125872L110,58.74125874125872L110,58.74125874125872L110,58.74125874125872L110,58.74125874125872L110,58.74125874125872L110,58.74125874125872L110,58.74125874125872L110,58.74125874125872L110,58.74125874125872L110,58.74125874125872L110,58.74125874125872L110,58.74125874125872L110,58.74125874125872L110,58.74125874125872L110,58.74125874125872L110,58.74125874125872L110,58.74125874125872L110,58.74125874125872L110,58.74125874125872L110,58.74125874125872L110,58.74125874125872L110,58.74125874125872L110,58.74125874125872L110,58.74125874125872L110,58.74125874125872L110,58.74125874125872L110,58.74125874125872L110,58.74125874125872L110,58.74125874125872L110,58.74125874125872L110,58.74125874125872L110,58.74125874125872L110,58.74125874125872L110,58.74125874125872L110,58.74125874125872L110,58.74125874125872L110,58.74125874125872L110,58.74125874125872L110,58.74125874125872L110,58.74125874125872L110,58.74125874125872L110,58.74125874125872L110,58.74125874125872L110,58.74125874125872L110,58.74125874125872L110,58.74125874125872L110,58.74125874125872L110,58.74125874125872L110,58.74125874125872L110,58.74125874125872L110,58.74125874125872L110,58.74125874125872L110,58.74125874125872L110,58.74125874125872L110,58.74125874125872L110,58.74125874125872L110,58.74125874125872L110,58.74125874125872L110,58.74125874125872L110,58.74125874125872L110,58.74125874125872L110,58.74125874125872L110,58.74125874125872L110,58.74125874125872L110,58.74125874125872L110,58.74125874125872L110,58.74125874125872L110,58.74125874125872L110,58.74125874125872L110,58.74125874125872L110,58.74125874125872L110,58.74125874125872L110,58.74125874125872L110,58.74125874125872L110,58.74125874125872L110,58.74125874125872L110,58.74125874125872L110,58.74125874125872L110,58.74125874125872L110,58.74125874125872L110,58.74125874125872L110,58.74125874125872L110,58.74125874125872L110,58.74125874125872L110,58.74125874125872L110,58.74125874125872L110,58.74125874125872L110,58.74125874125872L110,58.74125874125872L110,58.74125874125872L110,58.74125874125872L110,58.74125874125872L110,58.74125874125872L110,58.74125874125872L110,58.74125874125872L110,58.74125874125872L110,58.74125874125872L110,58.74125874125872L110,58.74125874125872L110,58.74125874125872L110,58.74125874125872L110,58.74125874125872L110,58.74125874125872L110,58.74125874125872L110,58.74125874125872L110,58.74125874125872L110,58.74125874125872L170,64.28571428571426L170,64.28571428571426L170,64.28571428571426L170,64.28571428571426L170,64.28571428571426L170,64.28571428571426L170,64.28571428571426L170,64.28571428571426L170,64.28571428571426L170,64.28571428571426L170,64.28571428571426L170,64.28571428571426L170,64.28571428571426L170,64.28571428571426L170,64.28571428571426L170,64.28571428571426L170,64.28571428571426L170,64.28571428571426L170,64.28571428571426L170,64.28571428571426L170,64.28571428571426L170,64.28571428571426L170,64.28571428571426L170,64.28571428571426L170,64.28571428571426L170,64.28571428571426L170,64.28571428571426L170,64.28571428571426L170,64.28571428571426L170,64.28571428571426L170,64.28571428571426L170,64.28571428571426L170,64.28571428571426L170,64.28571428571426L170,64.28571428571426L170,64.28571428571426L170,64.28571428571426L170,64.28571428571426L170,64.28571428571426L170,64.28571428571426L170,64.28571428571426L170,64.28571428571426L170,64.28571428571426L170,64.28571428571426L170,64.28571428571426L170,64.28571428571426L170,64.28571428571426L170,64.28571428571426L170,64.28571428571426L170,64.28571428571426L170,64.28571428571426L170,64.28571428571426L170,64.28571428571426L170,64.28571428571426L170,64.28571428571426L170,64.28571428571426L170,64.28571428571426L170,64.28571428571426L170,64.28571428571426L170,64.28571428571426L170,64.28571428571426L170,64.28571428571426L170,64.28571428571426L170,64.28571428571426L170,64.28571428571426L170,64.28571428571426L170,64.28571428571426L170,64.28571428571426L170,64.28571428571426L170,64.28571428571426L190,73.10081223124698L190,73.10081223124698L190,73.10081223124698L190,73.10081223124698L190,73.10081223124698L190,73.10081223124698L190,73.10081223124698L190,73.10081223124698L190,73.10081223124698L210,73.10081223124698L210,73.10081223124698L210,73.10081223124698L210,73.10081223124698L210,73.10081223124698L210,73.10081223124698L210,73.10081223124698L210,73.10081223124698L210,73.10081223124698L210,73.10081223124698L210,73.10081223124698L210,73.10081223124698L210,73.10081223124698L210,73.10081223124698L210,73.10081223124698L210,73.10081223124698L210,73.10081223124698L210,73.10081223124698L210,73.10081223124698L210,73.10081223124698L210,73.10081223124698L210,73.10081223124698L210,73.10081223124698L210,73.10081223124698L210,73.10081223124698L210,73.10081223124698L210,73.10081223124698L210,73.10081223124698L210,73.10081223124698L210,73.10081223124698L210,73.10081223124698L210,73.10081223124698L210,73.10081223124698L210,73.10081223124698L210,73.10081223124698L210,73.10081223124698L210,73.10081223124698L210,73.10081223124698L210,73.10081223124698L210,73.10081223124698L210,73.10081223124698L210,73.10081223124698L210,73.10081223124698L210,73.10081223124698L210,73.10081223124698L210,73.10081223124698L210,73.10081223124698L210,73.10081223124698L210,73.10081223124698L210,73.10081223124698L210,73.10081223124698L210,73.10081223124698L210,73.10081223124698L210,73.10081223124698L210,73.10081223124698L210,73.10081223124698L210,73.10081223124698L210,73.10081223124698L210,73.10081223124698L210,73.10081223124698L210,73.10081223124698L210,73.10081223124698L210,73.10081223124698L210,73.10081223124698L210,73.10081223124698L210,73.10081223124698L210,73.10081223124698L210,73.10081223124698L210,73.10081223124698L210,73.10081223124698L210,73.10081223124698L210,73.10081223124698L210,73.10081223124698L210,73.10081223124698L210,73.10081223124698L210,73.10081223124698L210,73.10081223124698L210,73.10081223124698L210,73.10081223124698L210,73.10081223124698L210,73.10081223124698L210,73.10081223124698L210,73.10081223124698L210,73.10081223124698L210,73.10081223124698L210,73.10081223124698L210,73.10081223124698L210,73.10081223124698L210,73.10081223124698L210,73.10081223124698L210,73.10081223124698L210,73.10081223124698L210,73.10081223124698L210,73.10081223124698L210,73.10081223124698L210,73.10081223124698L210,73.10081223124698L210,73.10081223124698L210,73.10081223124698L210,73.10081223124698L210,73.10081223124698L210,73.10081223124698L210,73.10081223124698L210,73.10081223124698L210,73.10081223124698L210,73.10081223124698L210,73.10081223124698L210,73.10081223124698L210,73.10081223124698L210,73.10081223124698L210,73.10081223124698L210,73.10081223124698L210,73.10081223124698L210,73.10081223124698L210,73.10081223124698L210,73.10081223124698L210,73.10081223124698L210,73.10081223124698L210,73.10081223124698L210,73.10081223124698L210,73.10081223124698L210,73.10081223124698L210,73.10081223124698L210,73.10081223124698L210,73.10081223124698L210,73.10081223124698L210,73.10081223124698L210,73.10081223124698L210,73.10081223124698L210,73.10081223124698L210,73.10081223124698L210,73.10081223124698L210,73.10081223124698L210,73.10081223124698L210,73.10081223124698L210,73.10081223124698L210,73.10081223124698L210,73.10081223124698L210,73.10081223124698L210,73.10081223124698L210,73.10081223124698L210,73.10081223124698L210,73.10081223124698L210,73.10081223124698L210,73.10081223124698L210,73.10081223124698L210,73.10081223124698L210,73.10081223124698L210,73.10081223124698L210,73.10081223124698L210,73.10081223124698L210,73.10081223124698L270,17.751479289940853L290,17.751479289940853L290,17.751479289940853L290,17.751479289940853L290,17.751479289940853L290,17.751479289940853L290,17.751479289940853L290,17.751479289940853L290,17.751479289940853L290,17.751479289940853L290,17.751479289940853L290,17.751479289940853L290,17.751479289940853L310,13.689700130378057L310,13.689700130378057L310,13.689700130378057L310,13.689700130378057L310,13.689700130378057L310,13.689700130378057L310,13.689700130378057L310,13.689700130378057L310,13.689700130378057L310,13.689700130378057L310,13.689700130378057L310,13.689700130378057L310,13.689700130378057L310,13.689700130378057L310,13.689700130378057L310,13.689700130378057L310,13.689700130378057L310,13.689700130378057L310,13.689700130378057L310,13.689700130378057L310,13.689700130378057L310,13.689700130378057L310,13.689700130378057L310,13.689700130378057L310,13.689700130378057L310,13.689700130378057L310,13.689700130378057L310,13.689700130378057L310,13.689700130378057L310,13.689700130378057L310,13.689700130378057L310,13.689700130378057L310,13.689700130378057L310,13.689700130378057L310,13.689700130378057L310,13.689700130378057L310,13.689700130378057L310,13.689700130378057L310,13.689700130378057L310,13.689700130378057L310,13.689700130378057L310,13.689700130378057L310,13.689700130378057L310,13.689700130378057L310,13.689700130378057L310,13.689700130378057L310,13.689700130378057L310,13.689700130378057L310,13.689700130378057L310,13.689700130378057L310,13.689700130378057L310,13.689700130378057L310,13.689700130378057L310,13.689700130378057L310,13.689700130378057L310,13.689700130378057L310,13.689700130378057L310,13.689700130378057L310,13.689700130378057L350,53.72871403405751L350,53.72871403405751L350,53.72871403405751L350,53.72871403405751L350,53.72871403405751L350,53.72871403405751L350,53.72871403405751L350,53.72871403405751L350,53.72871403405751L350,53.72871403405751L350,53.72871403405751L350,53.72871403405751L350,53.72871403405751L350,53.72871403405751L350,53.72871403405751L350,53.72871403405751L350,53.72871403405751L350,53.72871403405751L350,53.72871403405751L350,53.72871403405751L350,53.72871403405751L350,53.72871403405751L350,53.72871403405751L350,53.72871403405751L350,53.72871403405751L350,53.72871403405751L350,53.72871403405751L350,53.72871403405751L350,53.72871403405751L350,53.72871403405751L350,53.72871403405751L350,53.72871403405751L350,53.72871403405751L350,53.72871403405751L350,53.72871403405751L350,53.72871403405751L350,53.72871403405751L350,53.72871403405751L350,53.72871403405751L350,53.72871403405751L350,53.72871403405751L350,53.72871403405751L350,53.72871403405751L350,53.72871403405751L350,53.72871403405751L350,53.72871403405751L350,53.72871403405751L350,53.72871403405751L350,53.72871403405751L350,53.72871403405751L350,53.72871403405751L350,53.72871403405751L350,53.72871403405751L350,53.72871403405751L350,53.72871403405751L350,53.72871403405751L350,53.72871403405751L350,53.72871403405751L350,53.72871403405751L350,53.72871403405751L350,53.72871403405751L350,53.72871403405751L350,53.72871403405751L350,53.72871403405751L350,53.72871403405751L350,53.72871403405751L350,53.72871403405751L350,53.72871403405751L350,53.72871403405751L350,53.72871403405751L350,53.72871403405751L350,53.72871403405751L350,53.72871403405751L350,53.72871403405751L350,53.72871403405751L350,53.72871403405751L350,53.72871403405751L350,53.72871403405751L350,53.72871403405751L350,53.72871403405751L350,53.72871403405751L350,53.72871403405751L350,53.72871403405751L350,53.72871403405751L350,53.72871403405751L350,53.72871403405751L350,53.72871403405751L350,53.72871403405751L350,53.72871403405751L350,53.72871403405751L350,53.72871403405751L350,53.72871403405751L350,53.72871403405751L350,53.72871403405751L350,53.72871403405751L350,53.72871403405751L350,53.72871403405751L350,53.72871403405751L350,53.72871403405751L350,53.72871403405751L350,53.72871403405751L350,53.72871403405751L350,53.72871403405751L350,53.72871403405751L350,53.72871403405751L350,53.72871403405751L350,53.72871403405751L350,53.72871403405751L350,53.72871403405751L350,53.72871403405751L350,53.72871403405751L350,53.72871403405751L350,53.72871403405751L350,53.72871403405751L350,53.72871403405751L350,53.72871403405751L370,53.72871403405751L370,53.72871403405751L370,53.72871403405751L370,53.72871403405751L370,53.72871403405751L370,53.72871403405751L370,53.72871403405751L370,53.72871403405751L370,53.72871403405751L390,61.50667514303877L390,61.50667514303877L390,61.50667514303877L390,61.50667514303877L390,61.50667514303877L390,61.50667514303877L430,66.40841173215274L430,66.40841173215274L430,66.40841173215274L430,66.40841173215274L430,66.40841173215274L430,66.40841173215274L430,66.40841173215274L430,66.40841173215274L430,66.40841173215274L430,66.40841173215274L430,66.40841173215274L430,66.40841173215274L430,66.40841173215274L430,66.40841173215274L430,66.40841173215274L430,66.40841173215274L430,66.40841173215274L430,66.40841173215274L430,66.40841173215274L430,66.40841173215274L430,66.40841173215274L430,66.40841173215274L430,66.40841173215274L430,66.40841173215274L430,66.40841173215274L430,66.40841173215274L430,66.40841173215274L430,66.40841173215274L430,66.40841173215274L430,66.40841173215274L430,66.40841173215274L430,66.40841173215274L430,66.40841173215274L430,66.40841173215274L430,66.40841173215274L430,66.40841173215274L430,66.40841173215274L430,66.40841173215274L430,66.40841173215274L430,66.40841173215274L430,66.40841173215274L430,66.40841173215274L430,66.40841173215274L430,66.40841173215274L430,66.40841173215274L430,66.40841173215274L430,66.40841173215274L430,66.40841173215274L430,66.40841173215274L430,66.40841173215274L430,66.40841173215274L430,66.40841173215274L430,66.40841173215274L430,66.40841173215274L430,66.40841173215274L430,66.40841173215274L430,66.40841173215274L430,66.40841173215274L430,66.40841173215274L430,66.40841173215274L430,66.40841173215274L430,66.40841173215274L430,66.40841173215274L430,66.40841173215274L430,66.40841173215274L430,66.40841173215274L430,66.40841173215274L430,66.40841173215274L430,66.40841173215274L430,66.40841173215274L430,66.40841173215274L430,66.40841173215274L430,66.40841173215274L430,66.40841173215274L430,66.40841173215274L430,66.40841173215274L430,66.40841173215274L430,66.40841173215274L430,66.40841173215274L430,66.40841173215274L430,66.40841173215274L430,66.40841173215274L430,66.40841173215274L430,66.40841173215274L430,66.40841173215274L430,66.40841173215274L430,66.40841173215274L430,66.40841173215274L430,66.40841173215274L430,66.40841173215274L430,66.40841173215274L430,66.40841173215274L430,66.40841173215274L430,66.40841173215274L430,66.40841173215274L430,66.40841173215274L430,66.40841173215274L430,66.40841173215274L430,66.40841173215274L430,66.40841173215274L430,66.40841173215274L430,66.40841173215274L430,66.40841173215274L430,66.40841173215274L430,66.40841173215274L430,66.40841173215274L430,66.40841173215274L430,66.40841173215274L430,66.40841173215274L430,66.40841173215274L430,66.40841173215274L450,69.40427993059572L450,69.40427993059572L450,69.40427993059572L450,69.40427993059572L450,69.40427993059572L450,69.40427993059572L470,47.759932375317014L470,47.759932375317014L470,47.759932375317014L470,47.759932375317014L470,47.759932375317014L470,47.759932375317014L470,47.759932375317014L470,47.759932375317014L470,47.759932375317014L470,47.759932375317014L470,47.759932375317014L470,47.759932375317014L470,47.759932375317014L470,47.759932375317014L470,47.759932375317014L470,47.759932375317014L510,29.20227920227919L510,29.20227920227919L510,29.20227920227919L510,29.20227920227919L510,29.20227920227919L510,29.20227920227919L510,29.20227920227919L510,29.20227920227919L510,29.20227920227919L510,29.20227920227919L510,29.20227920227919L510,29.20227920227919L510,29.20227920227919L510,29.20227920227919L510,29.20227920227919L510,29.20227920227919L510,29.20227920227919L510,29.20227920227919L510,29.20227920227919L510,29.20227920227919L510,29.20227920227919L510,29.20227920227919L510,29.20227920227919L510,29.20227920227919L510,29.20227920227919L510,29.20227920227919L510,29.20227920227919L510,29.20227920227919L510,29.20227920227919L510,29.20227920227919L510,29.20227920227919L510,29.20227920227919L510,29.20227920227919L510,29.20227920227919L510,29.20227920227919L510,29.20227920227919L510,29.20227920227919L510,29.20227920227919L510,29.20227920227919L510,29.20227920227919L510,29.20227920227919L510,29.20227920227919L510,29.20227920227919L510,29.20227920227919L510,29.20227920227919L510,29.20227920227919L510,29.20227920227919L510,29.20227920227919L510,29.20227920227919L510,29.20227920227919L510,29.20227920227919L510,29.20227920227919L510,29.20227920227919L510,29.20227920227919L510,29.20227920227919L510,29.20227920227919L510,29.20227920227919L510,29.20227920227919L510,29.20227920227919L510,29.20227920227919L510,29.20227920227919L510,29.20227920227919L510,29.20227920227919L510,29.20227920227919L510,29.20227920227919L510,29.20227920227919L510,29.20227920227919L510,29.20227920227919L510,29.20227920227919L510,29.20227920227919L510,29.20227920227919L510,29.20227920227919L510,29.20227920227919L510,29.20227920227919L510,29.20227920227919L510,29.20227920227919L510,29.20227920227919L510,29.20227920227919L510,29.20227920227919L510,29.20227920227919L510,29.20227920227919L510,29.20227920227919L510,29.20227920227919L510,29.20227920227919L510,29.20227920227919L510,29.20227920227919L510,29.20227920227919L510,29.20227920227919L510,29.20227920227919L510,29.20227920227919L510,29.20227920227919L510,29.20227920227919L510,29.20227920227919L510,29.20227920227919L510,29.20227920227919L510,29.20227920227919L510,29.20227920227919L510,29.20227920227919L510,29.20227920227919L510,29.20227920227919L510,29.20227920227919L510,29.20227920227919L510,29.20227920227919L510,29.20227920227919L510,29.20227920227919L510,29.20227920227919L510,29.20227920227919L510,29.20227920227919L510,29.20227920227919L510,29.20227920227919L510,29.20227920227919L510,29.20227920227919L510,29.20227920227919L510,29.20227920227919L510,29.20227920227919L510,29.20227920227919L510,29.20227920227919L510,29.20227920227919L510,29.20227920227919L510,29.20227920227919L510,29.20227920227919L510,29.20227920227919L510,29.20227920227919L510,29.20227920227919L510,29.20227920227919L510,29.20227920227919L510,29.20227920227919L510,29.20227920227919L510,29.20227920227919L510,29.20227920227919L510,29.20227920227919L510,29.20227920227919L510,29.20227920227919L510,29.20227920227919L510,29.20227920227919L510,29.20227920227919L510,29.20227920227919L510,29.20227920227919L510,29.20227920227919L510,29.20227920227919L530,31.39717425431716L530,31.39717425431716L530,31.39717425431716L550,28.321678321678277L550,28.321678321678277L550,28.321678321678277L570,47.65886287625415L590,43.896321070234066L590,43.896321070234066L590,43.896321070234066L590,43.896321070234066L590,43.896321070234066L590,43.896321070234066L590,43.896321070234066L590,43.896321070234066L590,43.896321070234066L590,43.896321070234066L590,43.896321070234066L590,43.896321070234066L590,43.896321070234066L590,43.896321070234066L590,43.896321070234066L590,43.896321070234066L590,43.896321070234066L590,43.896321070234066L590,43.896321070234066L590,43.896321070234066L590,43.896321070234066L590,43.896321070234066L590,43.896321070234066L590,43.896321070234066L590,43.896321070234066L590,43.896321070234066L590,43.896321070234066L590,43.896321070234066L590,43.896321070234066L590,43.896321070234066L590,43.896321070234066L590,43.896321070234066L590,43.896321070234066L590,43.896321070234066L590,43.896321070234066L590,43.896321070234066L590,43.896321070234066L590,43.896321070234066L590,43.896321070234066L590,43.896321070234066L590,43.896321070234066L590,43.896321070234066L590,43.896321070234066L590,43.896321070234066L590,43.896321070234066L590,43.896321070234066L590,43.896321070234066L590,43.896321070234066L590,43.896321070234066L590,43.896321070234066L590,43.896321070234066L590,43.896321070234066L590,43.896321070234066L590,43.896321070234066L590,43.896321070234066L590,43.896321070234066L590,43.896321070234066L590,43.896321070234066L590,43.896321070234066L590,43.896321070234066L590,43.896321070234066L590,43.896321070234066L590,43.896321070234066L590,43.896321070234066L590,43.896321070234066L590,43.896321070234066L590,43.896321070234066L590,43.896321070234066L590,43.896321070234066L590,43.896321070234066L590,43.896321070234066L590,43.896321070234066L590,43.896321070234066L610,45.37597234226447L610,45.37597234226447L610,45.37597234226447L610,45.37597234226447L610,45.37597234226447L610,45.37597234226447L610,45.37597234226447L610,45.37597234226447L610,45.37597234226447L610,45.37597234226447L610,45.37597234226447L610,45.37597234226447L630,40.646853146853154L630,40.646853146853154L630,40.646853146853154" stroke="#4c78a8" stroke-width="2" opacity="0.8"/></g></g><path class="foreground" aria-hidden="true" d="" display="none"/></g><g transform="translate(0,0)"><path class="background" aria-hidden="true" d="M0,0h640v300h-640Z"/><g><g class="mark-line role-mark child_marks" role="graphics-object" aria-roledescription="line mark container"><path aria-label="attendee_type: Virtual; start_time: 08:00; avg_rating: 4.31325301205" role="graphics-symbol" aria-roledescription="line mark" d="M50,79.24003707136235L50,79.24003707136235L50,79.24003707136235L50,79.24003707136235L50,79.24003707136235L50,79.24003707136235L50,79.24003707136235L50,79.24003707136235L50,79.24003707136235L50,79.24003707136235L50,79.24003707136235L50,79.24003707136235L50,79.24003707136235L50,79.24003707136235L50,79.24003707136235L50,79.24003707136235L50,79.24003707136235L50,79.24003707136235L50,79.24003707136235L50,79.24003707136235L50,79.24003707136235L50,79.24003707136235L50,79.24003707136235L50,79.24003707136235L50,79.24003707136235L50,79.24003707136235L50,79.24003707136235L50,79.24003707136235L50,79.24003707136235L50,79.24003707136235L50,79.24003707136235L50,79.24003707136235L50,79.24003707136235L50,79.24003707136235L50,79.24003707136235L50,79.24003707136235L50,79.24003707136235L50,79.24003707136235L50,79.24003707136235L50,79.24003707136235L50,79.24003707136235L50,79.24003707136235L50,79.24003707136235L50,79.24003707136235L50,79.24003707136235L50,79.24003707136235L50,79.24003707136235L50,79.24003707136235L50,79.24003707136235L50,79.24003707136235L50,79.24003707136235L50,79.24003707136235L50,79.24003707136235L50,79.24003707136235L50,79.24003707136235L50,79.24003707136235L50,79.24003707136235L50,79.24003707136235L50,79.24003707136235L50,79.24003707136235L50,79.24003707136235L50,79.24003707136235L50,79.24003707136235L50,79.24003707136235L50,79.24003707136235L50,79.24003707136235L50,79.24003707136235L50,79.24003707136235L50,79.24003707136235L50,79.24003707136235L50,79.24003707136235L50,79.24003707136235L50,79.24003707136235L50,79.24003707136235L50,79.24003707136235L50,79.24003707136235L50,79.24003707136235L50,79.24003707136235L50,79.24003707136235L50,79.24003707136235L50,79.24003707136235L50,79.24003707136235L50,79.24003707136235L110,93.05210918114145L110,93.05210918114145L110,93.05210918114145L110,93.05210918114145L110,93.05210918114145L110,93.05210918114145L110,93.05210918114145L110,93.05210918114145L110,93.05210918114145L110,93.05210918114145L110,93.05210918114145L110,93.05210918114145L110,93.05210918114145L110,93.05210918114145L110,93.05210918114145L110,93.05210918114145L110,93.05210918114145L110,93.05210918114145L110,93.05210918114145L110,93.05210918114145L110,93.05210918114145L110,93.05210918114145L110,93.05210918114145L110,93.05210918114145L110,93.05210918114145L110,93.05210918114145L110,93.05210918114145L110,93.05210918114145L110,93.05210918114145L110,93.05210918114145L110,93.05210918114145L170,80.76923076923079L170,80.76923076923079L170,80.76923076923079L170,80.76923076923079L170,80.76923076923079L170,80.76923076923079L170,80.76923076923079L170,80.76923076923079L170,80.76923076923079L170,80.76923076923079L170,80.76923076923079L170,80.76923076923079L170,80.76923076923079L170,80.76923076923079L170,80.76923076923079L170,80.76923076923079L170,80.76923076923079L170,80.76923076923079L170,80.76923076923079L170,80.76923076923079L170,80.76923076923079L170,80.76923076923079L170,80.76923076923079L170,80.76923076923079L170,80.76923076923079L170,80.76923076923079L170,80.76923076923079L170,80.76923076923079L170,80.76923076923079L170,80.76923076923079L170,80.76923076923079L170,80.76923076923079L170,80.76923076923079L170,80.76923076923079L170,80.76923076923079L170,80.76923076923079L170,80.76923076923079L170,80.76923076923079L170,80.76923076923079L170,80.76923076923079L210,52.447552447552404L210,52.447552447552404L210,52.447552447552404L210,52.447552447552404L210,52.447552447552404L210,52.447552447552404L210,52.447552447552404L210,52.447552447552404L210,52.447552447552404L210,52.447552447552404L210,52.447552447552404L210,52.447552447552404L210,52.447552447552404L210,52.447552447552404L210,52.447552447552404L210,52.447552447552404L210,52.447552447552404L210,52.447552447552404L210,52.447552447552404L210,52.447552447552404L210,52.447552447552404L210,52.447552447552404L210,52.447552447552404L210,52.447552447552404L210,52.447552447552404L210,52.447552447552404L210,52.447552447552404L210,52.447552447552404L210,52.447552447552404L210,52.447552447552404L210,52.447552447552404L210,52.447552447552404L210,52.447552447552404L210,52.447552447552404L210,52.447552447552404L210,52.447552447552404L210,52.447552447552404L210,52.447552447552404L210,52.447552447552404L210,52.447552447552404L210,52.447552447552404L210,52.447552447552404L210,52.447552447552404L210,52.447552447552404L310,41.66666666666662L310,41.66666666666662L310,41.66666666666662L310,41.66666666666662L310,41.66666666666662L310,41.66666666666662L310,41.66666666666662L310,41.66666666666662L310,41.66666666666662L310,41.66666666666662L310,41.66666666666662L310,41.66666666666662L310,41.66666666666662L310,41.66666666666662L310,41.66666666666662L310,41.66666666666662L310,41.66666666666662L310,41.66666666666662L310,41.66666666666662L310,41.66666666666662L310,41.66666666666662L310,41.66666666666662L310,41.66666666666662L310,41.66666666666662L310,41.66666666666662L310,41.66666666666662L310,41.66666666666662L310,41.66666666666662L310,41.66666666666662L310,41.66666666666662L310,41.66666666666662L310,41.66666666666662L310,41.66666666666662L310,41.66666666666662L310,41.66666666666662L310,41.66666666666662L350,34.369885433715254L350,34.369885433715254L350,34.369885433715254L350,34.369885433715254L350,34.369885433715254L350,34.369885433715254L350,34.369885433715254L350,34.369885433715254L350,34.369885433715254L350,34.369885433715254L350,34.369885433715254L350,34.369885433715254L350,34.369885433715254L350,34.369885433715254L350,34.369885433715254L350,34.369885433715254L350,34.369885433715254L350,34.369885433715254L350,34.369885433715254L350,34.369885433715254L350,34.369885433715254L350,34.369885433715254L350,34.369885433715254L350,34.369885433715254L350,34.369885433715254L350,34.369885433715254L350,34.369885433715254L350,34.369885433715254L350,34.369885433715254L350,34.369885433715254L350,34.369885433715254L350,34.369885433715254L350,34.369885433715254L350,34.369885433715254L350,34.369885433715254L350,34.369885433715254L350,34.369885433715254L350,34.369885433715254L350,34.369885433715254L350,34.369885433715254L350,34.369885433715254L350,34.369885433715254L350,34.369885433715254L350,34.369885433715254L350,34.369885433715254L350,34.369885433715254L350,34.369885433715254L430,64.34911242603548L430,64.34911242603548L430,64.34911242603548L430,64.34911242603548L430,64.34911242603548L430,64.34911242603548L430,64.34911242603548L430,64.34911242603548L430,64.34911242603548L430,64.34911242603548L430,64.34911242603548L430,64.34911242603548L430,64.34911242603548L430,64.34911242603548L430,64.34911242603548L430,64.34911242603548L430,64.34911242603548L430,64.34911242603548L430,64.34911242603548L430,64.34911242603548L430,64.34911242603548L430,64.34911242603548L430,64.34911242603548L430,64.34911242603548L430,64.34911242603548L430,64.34911242603548L430,64.34911242603548L430,64.34911242603548L430,64.34911242603548L430,64.34911242603548L430,64.34911242603548L430,64.34911242603548L430,64.34911242603548L430,64.34911242603548L430,64.34911242603548L430,64.34911242603548L430,64.34911242603548L430,64.34911242603548L430,64.34911242603548L430,64.34911242603548L430,64.34911242603548L430,64.34911242603548L430,64.34911242603548L430,64.34911242603548L430,64.34911242603548L430,64.34911242603548L430,64.34911242603548L430,64.34911242603548L430,64.34911242603548L430,64.34911242603548L430,64.34911242603548L430,64.34911242603548L510,40.72398190045244L510,40.72398190045244L510,40.72398190045244L510,40.72398190045244L510,40.72398190045244L510,40.72398190045244L510,40.72398190045244L510,40.72398190045244L510,40.72398190045244L510,40.72398190045244L510,40.72398190045244L510,40.72398190045244L510,40.72398190045244L510,40.72398190045244L510,40.72398190045244L510,40.72398190045244L510,40.72398190045244L510,40.72398190045244L510,40.72398190045244L510,40.72398190045244L510,40.72398190045244L510,40.72398190045244L510,40.72398190045244L510,40.72398190045244L510,40.72398190045244L510,40.72398190045244L510,40.72398190045244L510,40.72398190045244L510,40.72398190045244L510,40.72398190045244L510,40.72398190045244L510,40.72398190045244L510,40.72398190045244L510,40.72398190045244L510,40.72398190045244L510,40.72398190045244L510,40.72398190045244L510,40.72398190045244L510,40.72398190045244L510,40.72398190045244L510,40.72398190045244L510,40.72398190045244L510,40.72398190045244L510,40.72398190045244L510,40.72398190045244L510,40.72398190045244L510,40.72398190045244L510,40.72398190045244L510,40.72398190045244L510,40.72398190045244L510,40.72398190045244L590,23.076923076923094L590,23.076923076923094L590,23.076923076923094L590,23.076923076923094L590,23.076923076923094L590,23.076923076923094L590,23.076923076923094L590,23.076923076923094L590,23.076923076923094L590,23.076923076923094L590,23.076923076923094L590,23.076923076923094L590,23.076923076923094L590,23.076923076923094L590,23.076923076923094" stroke="#f58518" stroke-width="2" opacity="0.8"/></g></g><path class="foreground" aria-hidden="true" d="" display="none"/></g></g></g><path class="foreground" aria-hidden="true" d="" display="none"/></g><g transform="translate(662,0)"><path class="background" aria-hidden="true" d="M0.5,0.5h640v300h-640Z" stroke="#ddd"/><g><g class="mark-group role-axis" aria-hidden="true"><g transform="translate(0.5,0.5)"><path class="background" aria-hidden="true" d="M0,0h0v0h0Z" pointer-events="none"/><g><g class="mark-rule role-axis-grid" pointer-events="none"><line transform="translate(0,288)" x2="640" y2="0" stroke="#ddd" stroke-width="1" opacity="1"/><line transform="translate(0,231)" x2="640" y2="0" stroke="#ddd" stroke-width="1" opacity="1"/><line transform="translate(0,173)" x2="640" y2="0" stroke="#ddd" stroke-width="1" opacity="1"/><line transform="translate(0,115)" x2="640" y2="0" stroke="#ddd" stroke-width="1" opacity="1"/><line transform="translate(0,58)" x2="640" y2="0" stroke="#ddd" stroke-width="1" opacity="1"/><line transform="translate(0,0)" x2="640" y2="0" stroke="#ddd" stroke-width="1" opacity="1"/></g></g><path class="foreground" aria-hidden="true" d="" pointer-events="none" display="none"/></g></g><g class="mark-group role-scope child_pathgroup" role="graphics-object" aria-roledescription="group mark container"><g transform="translate(0,0)"><path class="background" aria-hidden="true" d="M0,0h640v300h-640Z"/><g><g class="mark-line role-mark child_marks" role="graphics-object" aria-roledescription="line mark container"><path aria-label="attendee_type: In-person; start_time: 07:00; avg_rating: 2.66666666667" role="graphics-symbol" aria-roledescription="line mark" d="M30,269.2307692307692L30,269.2307692307692L30,269.2307692307692L50,32.84023668639053L50,32.84023668639053L50,32.84023668639053L50,32.84023668639053L50,32.84023668639053L50,32.84023668639053L50,32.84023668639053L50,32.84023668639053L50,32.84023668639053L50,32.84023668639053L50,32.84023668639053L50,32.84023668639053L50,32.84023668639053L50,32.84023668639053L50,32.84023668639053L50,32.84023668639053L50,32.84023668639053L50,32.84023668639053L50,32.84023668639053L50,32.84023668639053L50,32.84023668639053L50,32.84023668639053L50,32.84023668639053L50,32.84023668639053L50,32.84023668639053L50,32.84023668639053L50,32.84023668639053L50,32.84023668639053L50,32.84023668639053L50,32.84023668639053L50,32.84023668639053L50,32.84023668639053L50,32.84023668639053L50,32.84023668639053L50,32.84023668639053L50,32.84023668639053L50,32.84023668639053L50,32.84023668639053L50,32.84023668639053L50,32.84023668639053L50,32.84023668639053L50,32.84023668639053L50,32.84023668639053L50,32.84023668639053L50,32.84023668639053L50,32.84023668639053L50,32.84023668639053L50,32.84023668639053L50,32.84023668639053L50,32.84023668639053L50,32.84023668639053L50,32.84023668639053L50,32.84023668639053L50,32.84023668639053L50,32.84023668639053L50,32.84023668639053L50,32.84023668639053L50,32.84023668639053L50,32.84023668639053L50,32.84023668639053L50,32.84023668639053L50,32.84023668639053L50,32.84023668639053L50,32.84023668639053L50,32.84023668639053L50,32.84023668639053L50,32.84023668639053L50,32.84023668639053L50,32.84023668639053L50,32.84023668639053L50,32.84023668639053L50,32.84023668639053L50,32.84023668639053L50,32.84023668639053L50,32.84023668639053L50,32.84023668639053L50,32.84023668639053L50,32.84023668639053L50,32.84023668639053L50,32.84023668639053L50,32.84023668639053L50,32.84023668639053L50,32.84023668639053L50,32.84023668639053L50,32.84023668639053L50,32.84023668639053L50,32.84023668639053L50,32.84023668639053L50,32.84023668639053L50,32.84023668639053L50,32.84023668639053L50,32.84023668639053L50,32.84023668639053L50,32.84023668639053L50,32.84023668639053L50,32.84023668639053L50,32.84023668639053L50,32.84023668639053L50,32.84023668639053L50,32.84023668639053L50,32.84023668639053L50,32.84023668639053L50,32.84023668639053L50,32.84023668639053L50,32.84023668639053L50,32.84023668639053L50,32.84023668639053L50,32.84023668639053L50,32.84023668639053L50,32.84023668639053L50,32.84023668639053L50,32.84023668639053L50,32.84023668639053L50,32.84023668639053L50,32.84023668639053L50,32.84023668639053L50,32.84023668639053L50,32.84023668639053L70,32.84023668639053L70,32.84023668639053L70,32.84023668639053L90,46.59763313609469L90,46.59763313609469L90,46.59763313609469L90,46.59763313609469L90,46.59763313609469L90,46.59763313609469L90,46.59763313609469L90,46.59763313609469L90,46.59763313609469L110,56.490384615384585L110,56.490384615384585L110,56.490384615384585L110,56.490384615384585L110,56.490384615384585L110,56.490384615384585L110,56.490384615384585L110,56.490384615384585L110,56.490384615384585L110,56.490384615384585L110,56.490384615384585L110,56.490384615384585L110,56.490384615384585L110,56.490384615384585L110,56.490384615384585L110,56.490384615384585L110,56.490384615384585L110,56.490384615384585L110,56.490384615384585L110,56.490384615384585L110,56.490384615384585L110,56.490384615384585L110,56.490384615384585L110,56.490384615384585L110,56.490384615384585L110,56.490384615384585L110,56.490384615384585L110,56.490384615384585L110,56.490384615384585L110,56.490384615384585L110,56.490384615384585L110,56.490384615384585L110,56.490384615384585L110,56.490384615384585L110,56.490384615384585L110,56.490384615384585L110,56.490384615384585L110,56.490384615384585L110,56.490384615384585L110,56.490384615384585L110,56.490384615384585L110,56.490384615384585L110,56.490384615384585L110,56.490384615384585L110,56.490384615384585L110,56.490384615384585L110,56.490384615384585L110,56.490384615384585L110,56.490384615384585L110,56.490384615384585L110,56.490384615384585L110,56.490384615384585L110,56.490384615384585L110,56.490384615384585L110,56.490384615384585L110,56.490384615384585L110,56.490384615384585L110,56.490384615384585L110,56.490384615384585L110,56.490384615384585L110,56.490384615384585L110,56.490384615384585L110,56.490384615384585L110,56.490384615384585L110,56.490384615384585L110,56.490384615384585L110,56.490384615384585L110,56.490384615384585L110,56.490384615384585L110,56.490384615384585L110,56.490384615384585L110,56.490384615384585L110,56.490384615384585L110,56.490384615384585L110,56.490384615384585L110,56.490384615384585L110,56.490384615384585L110,56.490384615384585L130,62.33421750663126L130,62.33421750663126L130,62.33421750663126L150,63.929313929313956L150,63.929313929313956L150,63.929313929313956L150,63.929313929313956L150,63.929313929313956L150,63.929313929313956L170,60.275545350172244L170,60.275545350172244L170,60.275545350172244L170,60.275545350172244L170,60.275545350172244L170,60.275545350172244L170,60.275545350172244L170,60.275545350172244L170,60.275545350172244L170,60.275545350172244L170,60.275545350172244L170,60.275545350172244L170,60.275545350172244L170,60.275545350172244L170,60.275545350172244L170,60.275545350172244L170,60.275545350172244L170,60.275545350172244L170,60.275545350172244L170,60.275545350172244L170,60.275545350172244L170,60.275545350172244L170,60.275545350172244L170,60.275545350172244L170,60.275545350172244L170,60.275545350172244L170,60.275545350172244L170,60.275545350172244L170,60.275545350172244L170,60.275545350172244L170,60.275545350172244L170,60.275545350172244L170,60.275545350172244L170,60.275545350172244L170,60.275545350172244L170,60.275545350172244L170,60.275545350172244L170,60.275545350172244L170,60.275545350172244L170,60.275545350172244L170,60.275545350172244L170,60.275545350172244L170,60.275545350172244L170,60.275545350172244L170,60.275545350172244L170,60.275545350172244L170,60.275545350172244L170,60.275545350172244L170,60.275545350172244L170,60.275545350172244L170,60.275545350172244L170,60.275545350172244L170,60.275545350172244L170,60.275545350172244L170,60.275545350172244L170,60.275545350172244L170,60.275545350172244L170,60.275545350172244L170,60.275545350172244L170,60.275545350172244L170,60.275545350172244L190,68.8259109311741L190,68.8259109311741L190,68.8259109311741L210,66.34615384615388L210,66.34615384615388L210,66.34615384615388L210,66.34615384615388L210,66.34615384615388L210,66.34615384615388L210,66.34615384615388L210,66.34615384615388L210,66.34615384615388L210,66.34615384615388L210,66.34615384615388L210,66.34615384615388L210,66.34615384615388L210,66.34615384615388L210,66.34615384615388L210,66.34615384615388L210,66.34615384615388L210,66.34615384615388L210,66.34615384615388L210,66.34615384615388L210,66.34615384615388L210,66.34615384615388L210,66.34615384615388L210,66.34615384615388L210,66.34615384615388L210,66.34615384615388L210,66.34615384615388L210,66.34615384615388L210,66.34615384615388L210,66.34615384615388L210,66.34615384615388L210,66.34615384615388L210,66.34615384615388L210,66.34615384615388L210,66.34615384615388L210,66.34615384615388L210,66.34615384615388L210,66.34615384615388L210,66.34615384615388L210,66.34615384615388L210,66.34615384615388L210,66.34615384615388L210,66.34615384615388L210,66.34615384615388L210,66.34615384615388L210,66.34615384615388L210,66.34615384615388L210,66.34615384615388L210,66.34615384615388L210,66.34615384615388L210,66.34615384615388L210,66.34615384615388L210,66.34615384615388L210,66.34615384615388L210,66.34615384615388L210,66.34615384615388L210,66.34615384615388L210,66.34615384615388L210,66.34615384615388L210,66.34615384615388L210,66.34615384615388L210,66.34615384615388L210,66.34615384615388L210,66.34615384615388L210,66.34615384615388L210,66.34615384615388L210,66.34615384615388L210,66.34615384615388L210,66.34615384615388L210,66.34615384615388L210,66.34615384615388L210,66.34615384615388L210,66.34615384615388L210,66.34615384615388L210,66.34615384615388L210,66.34615384615388L210,66.34615384615388L210,66.34615384615388L210,66.34615384615388L210,66.34615384615388L210,66.34615384615388L210,66.34615384615388L210,66.34615384615388L210,66.34615384615388L210,66.34615384615388L210,66.34615384615388L210,66.34615384615388L210,66.34615384615388L210,66.34615384615388L210,66.34615384615388L210,66.34615384615388L210,66.34615384615388L210,66.34615384615388L210,66.34615384615388L210,66.34615384615388L210,66.34615384615388L210,66.34615384615388L210,66.34615384615388L210,66.34615384615388L210,66.34615384615388L210,66.34615384615388L210,66.34615384615388L230,66.34615384615388L230,66.34615384615388L230,66.34615384615388L230,66.34615384615388L230,66.34615384615388L230,66.34615384615388L230,66.34615384615388L230,66.34615384615388L230,66.34615384615388L250,70.40417209908738L250,70.40417209908738L250,70.40417209908738L250,70.40417209908738L250,70.40417209908738L250,70.40417209908738L290,82.41758241758242L310,30.867221950024536L310,30.867221950024536L310,30.867221950024536L310,30.867221950024536L310,30.867221950024536L310,30.867221950024536L310,30.867221950024536L310,30.867221950024536L310,30.867221950024536L310,30.867221950024536L310,30.867221950024536L310,30.867221950024536L310,30.867221950024536L310,30.867221950024536L310,30.867221950024536L310,30.867221950024536L310,30.867221950024536L310,30.867221950024536L310,30.867221950024536L310,30.867221950024536L310,30.867221950024536L310,30.867221950024536L310,30.867221950024536L310,30.867221950024536L310,30.867221950024536L310,30.867221950024536L310,30.867221950024536L310,30.867221950024536L310,30.867221950024536L310,30.867221950024536L310,30.867221950024536L310,30.867221950024536L310,30.867221950024536L310,30.867221950024536L310,30.867221950024536L310,30.867221950024536L310,30.867221950024536L310,30.867221950024536L310,30.867221950024536L310,30.867221950024536L310,30.867221950024536L310,30.867221950024536L310,30.867221950024536L310,30.867221950024536L310,30.867221950024536L310,30.867221950024536L310,30.867221950024536L310,30.867221950024536L310,30.867221950024536L310,30.867221950024536L310,30.867221950024536L310,30.867221950024536L310,30.867221950024536L310,30.867221950024536L310,30.867221950024536L310,30.867221950024536L310,30.867221950024536L310,30.867221950024536L310,30.867221950024536L310,30.867221950024536L310,30.867221950024536L310,30.867221950024536L310,30.867221950024536L310,30.867221950024536L310,30.867221950024536L310,30.867221950024536L310,30.867221950024536L310,30.867221950024536L310,30.867221950024536L310,30.867221950024536L310,30.867221950024536L310,30.867221950024536L310,30.867221950024536L310,30.867221950024536L310,30.867221950024536L310,30.867221950024536L310,30.867221950024536L310,30.867221950024536L310,30.867221950024536L310,30.867221950024536L310,30.867221950024536L310,30.867221950024536L310,30.867221950024536L310,30.867221950024536L310,30.867221950024536L310,30.867221950024536L310,30.867221950024536L310,30.867221950024536L310,30.867221950024536L310,30.867221950024536L310,30.867221950024536L310,30.867221950024536L310,30.867221950024536L310,30.867221950024536L310,30.867221950024536L310,30.867221950024536L310,30.867221950024536L310,30.867221950024536L310,30.867221950024536L310,30.867221950024536L310,30.867221950024536L310,30.867221950024536L310,30.867221950024536L310,30.867221950024536L310,30.867221950024536L310,30.867221950024536L310,30.867221950024536L310,30.867221950024536L310,30.867221950024536L310,30.867221950024536L310,30.867221950024536L310,30.867221950024536L310,30.867221950024536L310,30.867221950024536L310,30.867221950024536L310,30.867221950024536L310,30.867221950024536L310,30.867221950024536L310,30.867221950024536L310,30.867221950024536L310,30.867221950024536L310,30.867221950024536L310,30.867221950024536L310,30.867221950024536L310,30.867221950024536L310,30.867221950024536L310,30.867221950024536L310,30.867221950024536L310,30.867221950024536L310,30.867221950024536L310,30.867221950024536L310,30.867221950024536L310,30.867221950024536L310,30.867221950024536L310,30.867221950024536L310,30.867221950024536L310,30.867221950024536L310,30.867221950024536L310,30.867221950024536L310,30.867221950024536L310,30.867221950024536L310,30.867221950024536L310,30.867221950024536L310,30.867221950024536L310,30.867221950024536L310,30.867221950024536L310,30.867221950024536L310,30.867221950024536L310,30.867221950024536L310,30.867221950024536L310,30.867221950024536L310,30.867221950024536L310,30.867221950024536L310,30.867221950024536L310,30.867221950024536L310,30.867221950024536L310,30.867221950024536L330,38.94230769230772L330,38.94230769230772L330,38.94230769230772L330,38.94230769230772L330,38.94230769230772L330,38.94230769230772L330,38.94230769230772L330,38.94230769230772L330,38.94230769230772L330,38.94230769230772L330,38.94230769230772L330,38.94230769230772L330,38.94230769230772L330,38.94230769230772L330,38.94230769230772L330,38.94230769230772L330,38.94230769230772L330,38.94230769230772L330,38.94230769230772L330,38.94230769230772L330,38.94230769230772L330,38.94230769230772L330,38.94230769230772L330,38.94230769230772L330,38.94230769230772L330,38.94230769230772L330,38.94230769230772L330,38.94230769230772L330,38.94230769230772L330,38.94230769230772L330,38.94230769230772L330,38.94230769230772L330,38.94230769230772L330,38.94230769230772L330,38.94230769230772L330,38.94230769230772L330,38.94230769230772L330,38.94230769230772L330,38.94230769230772L330,38.94230769230772L330,38.94230769230772L330,38.94230769230772L330,38.94230769230772L330,38.94230769230772L330,38.94230769230772L330,38.94230769230772L330,38.94230769230772L330,38.94230769230772L330,38.94230769230772L330,38.94230769230772L330,38.94230769230772L330,38.94230769230772L330,38.94230769230772L330,38.94230769230772L330,38.94230769230772L330,38.94230769230772L330,38.94230769230772L330,38.94230769230772L330,38.94230769230772L330,38.94230769230772L330,38.94230769230772L330,38.94230769230772L330,38.94230769230772L330,38.94230769230772L330,38.94230769230772L330,38.94230769230772L330,38.94230769230772L330,38.94230769230772L330,38.94230769230772L330,38.94230769230772L330,38.94230769230772L330,38.94230769230772L330,38.94230769230772L330,38.94230769230772L330,38.94230769230772L330,38.94230769230772L330,38.94230769230772L330,38.94230769230772L330,38.94230769230772L330,38.94230769230772L410,67.40289413556737L410,67.40289413556737L410,67.40289413556737L410,67.40289413556737L410,67.40289413556737L410,67.40289413556737L410,67.40289413556737L410,67.40289413556737L410,67.40289413556737L410,67.40289413556737L410,67.40289413556737L410,67.40289413556737L410,67.40289413556737L410,67.40289413556737L410,67.40289413556737L410,67.40289413556737L410,67.40289413556737L410,67.40289413556737L410,67.40289413556737L410,67.40289413556737L410,67.40289413556737L410,67.40289413556737L410,67.40289413556737L410,67.40289413556737L410,67.40289413556737L410,67.40289413556737L410,67.40289413556737L410,67.40289413556737L410,67.40289413556737L410,67.40289413556737L410,67.40289413556737L410,67.40289413556737L410,67.40289413556737L410,67.40289413556737L410,67.40289413556737L410,67.40289413556737L410,67.40289413556737L410,67.40289413556737L410,67.40289413556737L410,67.40289413556737L410,67.40289413556737L410,67.40289413556737L410,67.40289413556737L410,67.40289413556737L410,67.40289413556737L410,67.40289413556737L410,67.40289413556737L410,67.40289413556737L410,67.40289413556737L410,67.40289413556737L410,67.40289413556737L410,67.40289413556737L410,67.40289413556737L410,67.40289413556737L410,67.40289413556737L410,67.40289413556737L410,67.40289413556737L410,67.40289413556737L410,67.40289413556737L410,67.40289413556737L410,67.40289413556737L410,67.40289413556737L410,67.40289413556737L410,67.40289413556737L410,67.40289413556737L410,67.40289413556737L410,67.40289413556737L410,67.40289413556737L410,67.40289413556737L410,67.40289413556737L410,67.40289413556737L410,67.40289413556737L410,67.40289413556737L410,67.40289413556737L410,67.40289413556737L410,67.40289413556737L410,67.40289413556737L410,67.40289413556737L410,67.40289413556737L410,67.40289413556737L410,67.40289413556737L410,67.40289413556737L410,67.40289413556737L410,67.40289413556737L410,67.40289413556737L410,67.40289413556737L410,67.40289413556737L410,67.40289413556737L410,67.40289413556737L410,67.40289413556737L410,67.40289413556737L410,67.40289413556737L410,67.40289413556737L410,67.40289413556737L410,67.40289413556737L410,67.40289413556737L410,67.40289413556737L410,67.40289413556737L410,67.40289413556737L410,67.40289413556737L410,67.40289413556737L490,43.76657824933686L490,43.76657824933686L490,43.76657824933686L490,43.76657824933686L490,43.76657824933686L490,43.76657824933686L490,43.76657824933686L490,43.76657824933686L490,43.76657824933686L490,43.76657824933686L490,43.76657824933686L490,43.76657824933686L490,43.76657824933686L490,43.76657824933686L490,43.76657824933686L490,43.76657824933686L490,43.76657824933686L490,43.76657824933686L490,43.76657824933686L490,43.76657824933686L490,43.76657824933686L490,43.76657824933686L490,43.76657824933686L490,43.76657824933686L490,43.76657824933686L490,43.76657824933686L490,43.76657824933686L490,43.76657824933686L490,43.76657824933686L570,65.9340659340659L570,65.9340659340659L570,65.9340659340659L570,65.9340659340659L570,65.9340659340659L570,65.9340659340659L570,65.9340659340659" stroke="#4c78a8" stroke-width="2" opacity="0.8"/></g></g><path class="foreground" aria-hidden="true" d="" display="none"/></g><g transform="translate(0,0)"><path class="background" aria-hidden="true" d="M0,0h640v300h-640Z"/><g><g class="mark-line role-mark child_marks" role="graphics-object" aria-roledescription="line mark container"><path aria-label="attendee_type: Virtual; start_time: 08:00; avg_rating: 4.14285714286" role="graphics-symbol" aria-roledescription="line mark" d="M50,98.90109890109885L50,98.90109890109885L50,98.90109890109885L50,98.90109890109885L50,98.90109890109885L50,98.90109890109885L50,98.90109890109885L50,98.90109890109885L50,98.90109890109885L50,98.90109890109885L50,98.90109890109885L50,98.90109890109885L50,98.90109890109885L50,98.90109890109885L50,98.90109890109885L50,98.90109890109885L50,98.90109890109885L50,98.90109890109885L50,98.90109890109885L50,98.90109890109885L50,98.90109890109885L110,52.447552447552404L110,52.447552447552404L110,52.447552447552404L110,52.447552447552404L110,52.447552447552404L110,52.447552447552404L110,52.447552447552404L110,52.447552447552404L110,52.447552447552404L110,52.447552447552404L110,52.447552447552404L110,52.447552447552404L110,52.447552447552404L110,52.447552447552404L110,52.447552447552404L110,52.447552447552404L110,52.447552447552404L110,52.447552447552404L110,52.447552447552404L110,52.447552447552404L110,52.447552447552404L110,52.447552447552404L170,76.92307692307695L170,76.92307692307695L170,76.92307692307695L170,76.92307692307695L170,76.92307692307695L170,76.92307692307695L170,76.92307692307695L170,76.92307692307695L170,76.92307692307695L170,76.92307692307695L170,76.92307692307695L170,76.92307692307695L210,51.2820512820513L210,51.2820512820513L210,51.2820512820513L210,51.2820512820513L210,51.2820512820513L210,51.2820512820513L210,51.2820512820513L210,51.2820512820513L210,51.2820512820513L210,51.2820512820513L210,51.2820512820513L210,51.2820512820513L210,51.2820512820513L210,51.2820512820513L210,51.2820512820513L210,51.2820512820513L210,51.2820512820513L210,51.2820512820513L310,125.00000000000003L310,125.00000000000003L310,125.00000000000003L310,125.00000000000003L310,125.00000000000003L310,125.00000000000003L310,125.00000000000003L310,125.00000000000003L310,125.00000000000003L310,125.00000000000003L310,125.00000000000003L310,125.00000000000003L310,125.00000000000003L310,125.00000000000003L310,125.00000000000003L310,125.00000000000003L310,125.00000000000003L310,125.00000000000003L310,125.00000000000003L310,125.00000000000003L310,125.00000000000003L310,125.00000000000003L310,125.00000000000003L310,125.00000000000003L330,20.36199095022627L330,20.36199095022627L330,20.36199095022627L330,20.36199095022627L330,20.36199095022627L330,20.36199095022627L330,20.36199095022627L330,20.36199095022627L330,20.36199095022627L330,20.36199095022627L330,20.36199095022627L330,20.36199095022627L330,20.36199095022627L330,20.36199095022627L330,20.36199095022627L330,20.36199095022627L330,20.36199095022627L410,12.820512820512775L410,12.820512820512775L410,12.820512820512775L410,12.820512820512775L410,12.820512820512775L410,12.820512820512775L410,12.820512820512775L410,12.820512820512775L410,12.820512820512775L490,38.461538461538424L490,38.461538461538424L490,38.461538461538424L490,38.461538461538424L490,38.461538461538424L490,38.461538461538424L490,38.461538461538424L490,38.461538461538424L490,38.461538461538424L490,38.461538461538424L490,38.461538461538424L490,38.461538461538424L490,38.461538461538424L490,38.461538461538424L490,38.461538461538424" stroke="#f58518" stroke-width="2" opacity="0.8"/></g></g><path class="foreground" aria-hidden="true" d="" display="none"/></g></g></g><path class="foreground" aria-hidden="true" d="" display="none"/></g></g><g class="mark-group role-legend" role="graphics-symbol" aria-roledescription="legend" aria-label="Symbol legend titled 'attendee_type' for stroke color with 2 values: In-person, Virtual"><g transform="translate(1321,0)"><path class="background" aria-hidden="true" d="M0,0h74v40h-74Z" pointer-events="none"/><g><g class="mark-group role-legend-entry"><g transform="translate(0,16)"><path class="background" aria-hidden="true" d="M0,0h0v0h0Z" pointer-events="none"/><g><g class="mark-group role-scope" role="graphics-object" aria-roledescription="group mark container"><g transform="translate(0,0)"><path class="background" aria-hidden="true" d="M0,0h58.24609375v11h-58.24609375Z" pointer-events="none" opacity="1"/><g><g class="mark-symbol role-legend-symbol" pointer-events="none"><path transform="translate(6,6)" d="M-5,0L5,0" stroke="#4c78a8" stroke-width="1.5" opacity="0.8"/></g><g class="mark-text role-legend-label" pointer-events="none"><text text-anchor="start" transform="translate(16,9)" font-family="sans-serif" font-size="10px" fill="#000" opacity="1">In-person</text></g></g><path class="foreground" aria-hidden="true" d="" pointer-events="none" display="none"/></g><g transform="translate(0,13)"><path class="background" aria-hidden="true" d="M0,0h58.24609375v11h-58.24609375Z" pointer-events="none" opacity="1"/><g><g class="mark-symbol role-legend-symbol" pointer-events="none"><path transform="translate(6,6)" d="M-5,0L5,0" stroke="#f58518" stroke-width="1.5" opacity="0.8"/></g><g class="mark-text role-legend-label" pointer-events="none"><text text-anchor="start" transform="translate(16,9)" font-family="sans-serif" font-size="10px" fill="#000" opacity="1">Virtual</text></g></g><path class="foreground" aria-hidden="true" d="" pointer-events="none" display="none"/></g></g></g><path class="foreground" aria-hidden="true" d="" pointer-events="none" display="none"/></g></g><g class="mark-text role-legend-title" pointer-events="none"><text text-anchor="start" transform="translate(0,9)" font-family="sans-serif" font-size="11px" font-weight="bold" fill="#000" opacity="1">attendee_type</text></g></g><path class="foreground" aria-hidden="true" d="" pointer-events="none" display="none"/></g></g></g><path class="foreground" aria-hidden="true" d="" display="none"/></g></g></g></svg>